<!DOCTYPE svg PUBLIC "-//W3C//DTD SVG 1.1//EN" "http://www.w3.org/Graphics/SVG/1.1/DTD/svg11.dtd">
<svg version="1.1" id="Layer_1" xmlns="http://www.w3.org/2000/svg" xmlns:xlink="http://www.w3.org/1999/xlink" x="0px" y="0px"
	 width="723.664px" height="485.813px" viewBox="0 0 723.664 485.813" enable-background="new 0 0 723.664 485.813"
	 xml:space="preserve">
<g>
	<path id="path34_1_" fill="#C6ECFF" d="M0.832,1.957h720v480h-720V1.957"/>
	<path id="path38_1_" fill="#F7D3AA" stroke="#A08070" stroke-width="5.812" stroke-linecap="square" stroke-linejoin="bevel" d="
		M0.832,366.415v8.669l19.959,24.951l24.189,12.879l12.403,9.367l16.511,38.516l15.597,17.68l0.743,3.48h156.294l-3.341-7.869
		l-2.28-12.682L222.2,450.56l-0.667-8.459l-3.232-4.191l-4.273-0.667l-3.868-3.251l-1.302-5.792l-7.125-1.683l-9.285-6.795
		l-4.871-0.324l-3.023,2.273l-8.04,1.544l-9.787-2.484l-2.984-5.245l-6.23-2.642l-0.083-3.918l-9.278-5.525l-20.207-23.37
		l-2.991-0.178l-2.718,2.845l-4.127,0.947l-1.823,0.127l-1.765-2.28l-5.875,1.556l-3.035,5.004l-2.604,0.318l-0.991-3.766
		l1.276-10.605l2.756-7.564l-0.933-2.667l-28.102-16.251l-27.143-18.925l-5.125,6.681l-4.56,2.09l-0.165,4.572l-13.558,8.192
		l-4.789,1.048L0.832,366.415L0.832,366.415z"/>
	<path id="path40_1_" fill="#F7D3AA" stroke="#A08070" stroke-width="5.812" stroke-linecap="square" stroke-linejoin="bevel" d="
		M160.09,387.607l-1.09-1.049l1.333-0.211L160.09,387.607"/>
	<path id="path42_1_" fill="#F7D3AA" stroke="#A08070" stroke-width="5.812" stroke-linecap="square" stroke-linejoin="bevel" d="
		M643.79,75.297l1.322,2.951l-1.742,2.094l-2.499-3.921L643.79,75.297"/>
	<path id="path3022" fill="#F7D3AA" stroke="#A08070" stroke-width="5.812" stroke-linecap="square" stroke-linejoin="bevel" d="
		M483.734,1.957H64.878l0.597,3.816l9.844,5.398l1.46,5.232l1.473-0.635l2,3.912l9.475,5.448l3.798,4.973l7.525,1.372l4.312,3.76
		l7.094,0.229l4.782-2.28l10.738,2.216l3.899,7.088l4.89-0.318l0.267,6.459l-4.814,8.459l8.631,2.801l4.687,3.912l8.732-1.334
		l11.368,3.696l0.711-3.887l5.531-0.222l4.173-3.487l0.508-7.563l3.931-0.013l1.976,1.956l1.396-2.94l2.318-0.057l6.401-5.468
		l2.642,0.793l2.947-1.536l7.113,4.395l3.543-1.664l11.729,5.227l3.398-3.798l4.604-0.361l5.48,5.232l0.216,3.899l7.799,0.724
		l4.725-4.324l9.812-0.242l4.826,8.288l3.805,0.032l7.678,6.084l-1.924,5.276l0.45,3.462l3.854-0.915l1.664,2.273l3.766-1.619
		l2.204,1.543l1.626-2.527l4.725,5.976l-0.559,4.77l1.581,0.921l6.478,1.409l3.258-1.066l9.652,4.28l4.344-2.026l8.688,1.118
		l4.376,4.991l4.439-3.149l0.8-2.674l4.731-1.74l1.683-3.766l5.036,1.874l0.991-5.589l2.394-3.29l2.578-2.591l4.166,0.915
		l-0.711-4.224l6.554-9.05l14.955-10.345l13.438-12.759l5.684-6.864l4.477-9.259l5.977-5.723l17.591-0.069l47.648,9.297l1.955,3.194
		l10.746-6.325l6.414-0.577l0.438-6.789l-4.483-0.718l2.426-4.725l-8.37-1.479l0.083-2.28l3.728-2.07L483.734,1.957z"/>
	<path id="path3043" fill="#F7D3AA" stroke="#A08070" stroke-width="5.812" stroke-linecap="square" stroke-linejoin="bevel" d="
		M64.878,1.957H0.832v364.458l20.842-15.241l4.789-1.048l13.558-8.192l0.165-4.572l4.103-1.689l5.544-6.713l-4.178-35.957
		l-11.749-18.746l-0.165-5.799l-12.975-11.589l-0.102-4.421l4.433-1.631l3.055-6.776l-10.173-19.77l0.616-16.003l7.57,5.176
		l4.382-6.713l1.784,7.386l2.61,2.02l2.712-0.997l1.264,1.055l8.116-5.875l7.608,1.2l4.293-0.825l1.289-2.141l5.404,1.448
		l3.665-1.849l3.315,1.023l2.852-3.576l3.816,1.543l1.486,3.283l8.84-4.54l4.249,1.155l9.646-16.867l12.136-7.194l12.663-10.745
		l4.947-8.948l5.792-5.404l-5.493-8.827l5.544-7.189l-5.849-13.717l5.303-9.964l2.724-1.409l7.938,0.526l4.191-3.651l3.912,0.114
		l14.264-17.14l1.816-6.853l-3.385-1.613l-2.274,3.595l-2.654-2.623l-1.689,2.616l-2.572-1.987l-1.892-8.828l1.193-10.097
		l-1.099-2.801l2.121-2.743l-6.865-2.826l-8.732,1.334l-4.687-3.912l-8.631-2.801l4.814-8.459l-0.425-7.094l-4.731,0.953
		l-3.531-6.719l-3.582-1.849l-9.208-0.628l-3.099,2.172l-7.094-0.229l-4.312-3.759l-7.525-1.372l-3.798-4.973l-9.475-5.448l-2-3.912
		l-1.473,0.635l-1.46-5.232l-9.844-5.398L64.878,1.957L64.878,1.957z"/>
	<path id="path50" fill="#F7D3AA" stroke="#A08070" stroke-width="5.812" stroke-linecap="square" stroke-linejoin="bevel" d="
		M246.529,481.957h386.024l0.146-0.261l0.083,0.261h2.578l0.546-0.413l-0.476,0.413h85.401V245.488l-8.147-2.465l-4.655,13.666
		l-2.99,1.455l-2.096-0.127l-2.045-3.366l-2.839-0.165l1.365-7.723l-2.216-2.502l5.486-9.183l8.269-4.661l1.238-6.986l-3.404-10.217
		l-3.321-4.865l-3.232-0.99l0.032-2.572l-1.397,0.07l-1.188-2.604l-2.166,0.907l1.131-1.429l-2.604-0.482l0.33-1.918l-1.226,1.117
		l-1.53-2.285l-2.668,1.117l-1.518-2.68l-1.371,0.781l-0.743-1.035l-11.698,3.143l-0.037,2.985l-3.207,3.341l1.848,4.115
		l-0.279,4.172l-1.893,1.67l1.302,4.109l-2.096,3.289l-6.439,2.654l-1.778,0.279l-1.41-4.045l-9.1-2.045l-33.76,9.576l-2.344,3.112
		l-12.65,0.927l-5.753-0.189l-7.329-8.428l-8.548,0.013l-7.899,7.386l-23.085,0.146l-8.472,11.387l-1.893-1.271l-6.94,0.572
		l-0.661-3.055l-4.75,1.657l-1.969-1.358l-8.198,0.59l-4.153,6.503l-5.475,1.429l-4.934,5.462l-3.29,13.698l3.524,1.777l6.834-1.746
		l3.657,2.915l-2.534,3.442l-0.78,7.17l-2.928,0.578l-1.385,3.092l-2.343,1.023l-1.512,3.943l0.851,3.01l-2.661,1.353l2.801,4.414
		l5.709-0.368l3.195,1.854l-7.424,5.703l-6.611,2.382l-6.503-0.509l-1.931,6.446l2.998,9.558l-1.639,3.506l0.394,4.902l-2.788,3.15
		l0.4,8.896l-3.169-4.026l-4.643-0.526l0.477-2.255l-3.843-5.468l-7.576-4.268l-6.039-10.828l-5.899-3.479l-1.079-6.382
		l-0.852,1.079l-2.743-4.268l-2.452-0.489l-0.412-4.4l-10.408,1.835l-5.208,5.97l-0.819,15.248l3.182,1.987l2.509,4.61l1.048,8.173
		l-8.484,3.093l-5.734,5.449l-3.932-0.73l-2.406-2.572l-4.325-0.248l-1.066-2.426l-3.417,0.21l-2.813-4.115l-4.407,1.772l0.33,3.695
		l-8.401,0.273l-23.528-7.246l-3.779,5.461l-3.543,1.131l-0.286,3.963l1.766,5.684l4.953,0.089l0.534,4.884l-10.11,10.104
		l-6.186,8.713l0.178,6.389l-7.392,3.404l-4.338,5.811l-2.553-4.998l-4.313,6.935l-1.619-0.8l-6.154,5.188l-5.289,0.286
		l-7.844,13.094l-16.918,0.235l-5.899,5.843l-4.395-0.35l-5.905-2.406l-6.631-0.457l-3.436-2.75l-0.216-5.596l-12.384,1.334
		l-10.428-8.357l-5.397,3.519l-3.403,12.313l-21.758,7.538l-7.074,8.357l-4.973-0.692l1.302,5.792l3.868,3.251l4.273,0.667
		l3.232,4.191l0.667,8.459l18.709,10.847l2.279,12.682L246.529,481.957L246.529,481.957z"/>
	<path id="path54_1_" fill="#F7D3AA" stroke="#A08070" stroke-width="5.812" stroke-linecap="square" stroke-linejoin="bevel" d="
		M153.503,401.742l-3.591,0.875l0.653-2.73l2.459-1.378L153.503,401.742"/>
	<path id="path56_1_" fill="#F7D3AA" stroke="#A08070" stroke-width="5.812" stroke-linecap="square" stroke-linejoin="bevel" d="
		M92.547,308.643l-8.74-4.449l-1.106-4.449l9.493-3.507l6.411,1.258l0.794,9.168L92.547,308.643"/>
	<path id="path58_1_" fill="#F7D3AA" stroke="#A08070" stroke-width="5.812" stroke-linecap="square" stroke-linejoin="bevel" d="
		M703.689,207.15l-1.442,0.211l0.211-2.303L703.689,207.15"/>
	<path id="path60_1_" fill="#F7D3AA" stroke="#A08070" stroke-width="5.812" stroke-linecap="square" stroke-linejoin="bevel" d="
		M652.113,75.239l1.615,0.967l-9.396,5.125l0.612-5.333L652.113,75.239"/>
	<path id="path62_1_" fill="#F7D3AA" stroke="#A08070" stroke-width="5.812" stroke-linecap="square" stroke-linejoin="bevel" d="
		M702.275,204.785l-1.395,0.07l-1.192-2.604l-2.165,0.907l1.133-1.427l-2.602-0.482l0.329-1.918l-1.224,1.117l-1.697-2.338
		l-3.68,0.858l-0.343-2.368l-13.521,2.715l-0.327,3.156l-3.196,3.229l1.839,4.231l-0.279,4.168l-1.894,1.673l1.304,4.107
		l-2.098,3.289l-7.745,2.957l-1.882-4.063l-9.103-2.051l-33.756,9.58l-2.345,3.11l-12.653,0.926l-5.753-0.186l-7.329-8.427
		l-8.547,0.009l-7.9,7.387l-23.083,0.143l-8.475,11.389l-1.889-1.27l-6.943,0.572l-0.66-3.052l-4.75,1.653l-1.97-1.356l-7.688,0.276
		l-4.665,6.814l-5.475,1.434l-4.935,5.457l-3.255,13.92l3.492,1.558l6.833-1.747l3.675,3.046l-2.549,3.312l-0.78,7.172l-2.933,0.575
		l-1.383,3.092l-2.342,1.026l-1.515,3.939l0.854,3.009l-2.659,1.354l2.798,4.418l4.436-0.583l4.495,1.968l-7.449,5.799l-6.614,2.383
		l-6.5-0.506l-1.932,6.443l2.995,9.559l-1.64,3.504l0.396,4.904l-2.789,3.148l0.401,8.901l-3.171-4.032l-4.642-0.525l0.478-2.251
		l-3.845-5.472l-7.571-4.263l-6.041-10.831l-5.897-3.478l-1.085-6.382l-0.847,1.075l-2.743-4.267l-2.453-0.488l-0.41-4.4
		l-10.411,1.838l-5.208,5.964l-0.816,15.252l3.178,1.987l2.511,4.607l1.049,8.178l-8.486,3.094l-5.731,5.442l-3.936-0.728
		l-2.405-2.57l-4.327-0.246l-1.063-2.43l-3.421,0.211l-2.813-4.118l-4.406,1.771l0.331,3.696l-8.4,0.273l-23.529-7.243l-3.779,5.458
		l-3.543,1.13l-0.285,3.965l1.764,5.686l4.951,0.087l0.535,4.883l-10.108,10.104l-6.185,8.714l0.18,6.393l-7.396,3.402l-4.335,5.811
		l-2.556-4.997l-4.313,6.934l-1.617-0.799l-6.151,5.185l-5.295,0.289l-7.838,13.096l-16.92,0.23l-5.896,5.844l-4.399-0.351
		l-5.901-2.403l-6.632-0.458l-3.435-2.753l-0.216-5.594l-12.386,1.334l-10.426-8.354l-5.397,3.517l-3.101,12.088l-22.06,7.762
		l-2.983,1.982l-2.953,5.72l-2.208,0.708l-11.033-2.429l-9.284-6.792l-4.869-0.324l-3.022,2.275l-8.039,1.538l-9.788-2.483
		l-2.982-5.244l-6.234-2.639l-0.082-3.924l-9.28-5.52l-20.207-23.371l-2.989-0.178l-2.717,2.844l-4.128,0.945l-1.822,0.128
		l-1.766-2.28l-5.873,1.555l-3.041,5.007l-2.6,0.314l-0.99-3.765l1.277-10.604l2.753-7.565l-0.931-2.666l-28.104-16.253
		l-27.143-18.922l-4.214-35.587l-11.751-18.746l-0.166-5.802l-12.878-11.236l-0.194-4.771l4.43-1.637l3.057-6.772l-10.178-19.77
		l1.18-16.275l7.007,5.45l4.379-6.715l1.788,7.384l2.611,2.019l2.712-0.994l1.259,1.051l8.121-5.869l7.604,1.195l4.296-0.82
		l1.29-2.141l5.404,1.446l3.665-1.849l3.312,1.021l2.852-3.572l3.819,1.543l1.485,3.283l8.841-4.539l4.243,1.152l9.652-16.866
		l12.13-7.192l12.667-10.75l4.944-8.945l5.791-5.404l-5.489-8.827l5.543-7.188l-5.849-13.72l5.306-9.962l2.724-1.408l7.938,0.523
		l4.188-3.648l3.912,0.114l14.265-17.143l1.543-7.276l-3.113-1.189l-2.025,3.594l-2.903-2.62l-1.689,2.612l-2.57-1.984l-1.889-8.828
		l1.192-10.098l-1.098-2.799l2.118-2.747l4.501,0.87l0.711-3.884l7.706-1.403l2.199-2.734l0.309-7.132l3.933-0.017l1.974,1.955
		l1.399-2.936l2.315-0.059l5.771-5.182l3.271,0.508l2.948-1.538l6.596,4.329l4.063-1.597l11.728,5.226l3.397-3.797l4.604-0.365
		l5.483,5.235l0.098,3.786l2.506,0.555l5.408,0.283l4.728-4.324l9.514-0.34l2.194,1.635l2.93,6.751l3.805,0.028l7.673,6.088
		l-1.925,5.277l0.456,3.461l3.854-0.914l1.664,2.271l3.766-1.619l2.203,1.544l1.622-2.531l4.729,5.979l-0.562,4.768l1.584,0.92
		l6.479,1.412l3.255-1.067l9.654,4.278l4.342-2.025l8.688,1.116l4.376,4.995l4.44-3.153l0.797-2.669l4.734-1.742l1.68-3.766
		l5.041,1.873l0.988-5.586l2.396-3.295l2.577-2.587l4.166,0.91l-0.715-4.218l6.557-9.055l14.957-10.346l13.436-12.758l5.686-6.861
		l4.476-9.261l6.108-5.777l17.457-0.013l47.647,9.295l1.961,3.195l10.745-6.327l6.41-0.578l0.441-6.788l3.002-0.489l4.692,5.952
		l-0.782,5.903l1.747,1.911l6.828-0.27l5.58,2.092l2.085,6.205l-2.068,3.017l5.019,3.682l4.138-0.095l6.977,7.754l8.556,4.79
		l1.047,3.134l2.343-0.986l6.266,1.148l6.146,5.345l-0.156,2.709l11.3,0.267l1.25,4.029l4.558,0.327l16.613-6.894l8.801,2.596
		l13.877,1.111l17.318,6.721l4.227,2.129l-0.617,1.229l11.45,0.571l4.864,3.844l11.986-6.053l13.469,0.371l6.487-4.443l5.129,7.693
		l3.336,13.574l0.7,6.875l-3.119,6.333l-0.319,5.288l13.092,23.837l-0.994,10.873l1.152,6.633l-3.398,10.755l-0.423,7.089
		l5.792,22.404L702.275,204.785 M77.958,208.63l-2.018-0.196l-4.908,4.22l2.964,2.003l3.465-0.512l1.664-1.921L77.958,208.63
		 M94.795,295.977L82.7,299.744l0.21,3.525l7.414,5.275l8.856-1.658l-0.475-9.288L94.795,295.977 M151.467,399.714l-1.243,3.283
		l4.042-1.263l-0.891-3.232L151.467,399.714"/>
	<path id="path64_1_" fill="#F7D3AA" stroke="#A08070" stroke-width="5.812" stroke-linecap="square" stroke-linejoin="bevel" d="
		M685.385,39.753l-0.548,1.421l-1.202-0.955L685.385,39.753"/>
	<path id="path66_1_" fill="#F7D3AA" stroke="#A08070" stroke-width="5.812" stroke-linecap="square" stroke-linejoin="bevel" d="
		M699.909,7.344l0.382,2.285l-1.234,0.215L699.909,7.344"/>
	<path id="path68_1_" fill="#F7D3AA" stroke="#A08070" stroke-width="5.812" stroke-linecap="square" stroke-linejoin="bevel" d="
		M696.751,4.408l1.183,1.389l-1.214,1.445L696.751,4.408"/>
	<path id="path3050" fill="#F7D3AA" stroke="#A08070" stroke-width="5.812" stroke-linecap="square" stroke-linejoin="bevel" d="
		M679.642,1.957h-6.077l1.536,2.375L679.642,1.957z"/>
	<path id="path72_1_" fill="#F7D3AA" stroke="#A08070" stroke-width="5.812" stroke-linecap="square" stroke-linejoin="bevel" d="
		M73.996,214.656l-2.987-2.665l4.932-3.558l2.018,0.196l0.861,4.212L73.996,214.656"/>
	<path id="path76_1_" fill="#FFFFE9" stroke="#000000" stroke-width="3.0222" stroke-linecap="square" stroke-linejoin="bevel" d="
		M343.205,262.47l-3.219,1.605l-12.089-7.118l-10.716-2.791l-7.623,1.334l-4.436-1.767l-5.676,1.027l-9.144-3.718l1.26-8.832
		l1.248-4.311l2.093-0.922l1.399,5.235l5.813,1.278l7.709,4.524l4.411,0.192l14.931-12.406l5.789-9.493l0.009-5.878l1.826-4.473
		l3.65-0.971l-1.615-2.693l3.946-0.031l1.253-3.581l1.222,1.563l1.401-1.133l7.61-11.404l4.637-10.723l-0.478-8.357l4.227-8.283
		l0.341-9.385l-2.432-4.405l0.509-6.122l4.457-1.666l-0.555-2.049l1.942-1.458l14.147,1.171l9.015,9.81l4.395-0.491l5.518,3.219
		l2.806-0.898l-0.23,2.057l1.846,1.605l1.517-0.161l1.365-8.608l3.912-0.583l-1.469-4.718l9.644,5.007l3.02-0.999l0.121-2.197
		l2.104-0.417l3.34-4.607l0.274,1.774l2.765,0.436l1.728,2.758l0.243-1.78l8.097-4.644l10.114,9.033l1.721-1.424l-3.355-3.279
		l1.604-6.047l7.713-1.223l4.674,3.761l4.026,0.714l2.921,14.243l6.148,8.01l6.759-0.579l1.2,4.184l7.574,0.211l-0.571,11.46
		l-1.567,3.407l1.318,2.998l-1.325,2.314l-5.842,1.282l-1.281,2.103l2.294,1.412l-2.354,3.756l3.022,15.299l3.57,2.35l2.753,5.03
		l-1.665,16.243l1.373,24.885l-1.536,9.163l-7.477,11.623l9.986,23.851l-2.462,6.879l2.995,9.559l-1.64,3.505l0.396,4.903
		l-2.789,3.148l0.4,8.901l-3.17-4.032l-4.642-0.525l0.478-2.251l-3.845-5.472l-7.572-4.263l-6.04-10.831l-5.897-3.478l-1.085-6.382
		l-0.847,1.075l-2.743-4.267l-2.453-0.488l-0.41-4.4l-10.411,1.838l7.179-3.812l0.478-9.3l-3.53-3.845l-10.225-4.591l-6.521-6.824
		l2.89-6.717l6.59-4.496l0.375-2.011l-7.503,2.827l-6.94,0.51l-13.764-3.807l-11.148,2.954l-4.563-1.289l-6.741,7.954l-6.495-0.077
		l-1.955,4.642l-9.459,0.895l-9.527-3.424l1.867-4.768l-0.805-3.967L343.205,262.47"/>
	<path id="path78_1_" fill="#FFFFE9" stroke="#000000" stroke-width="3.0222" stroke-linecap="square" stroke-linejoin="bevel" d="
		M249.736,154.09l1.368,3.893l2.974,0.344l3.816,5.609l-0.523,2.474l4.843,6.72l-7.663,13.553l-5.157,16.573l-6.069,11.411
		l1.12,2.262l-2.483,5.905l-5.47,6.698l-2.941,0.418l-2.165-2.034l-8.534,1.883l1.454,6.964l-2.915,1.336l-4.839,9.761l-1.467-1.694
		l-5.246-0.257l-2.556,0.962l-4.902,6.324l-3.276-0.446l-3.882-3.644l-2.08,1.272l-2.162-4.13l-8.221-4.229l-7.992-2.162
		l-2.639,1.124l-0.217-1.723l-4.35,0.151l-7.81-3.611l-7.377,2.136l-8.145,7.021l-6.492,2.277l-3.955-1.243l-11.17,1.579
		l-1.082,3.907l-30.431-27.938l-10.059-12.029l1.48-2.912l7.081-2.705l4.243,1.152l9.652-16.866l12.13-7.192l12.666-10.75
		l4.945-8.945l5.791-5.404l-5.49-8.827l5.543-7.188l-5.849-13.721l5.306-9.961l2.724-1.408l7.938,0.523l4.188-3.648l3.912,0.113
		l12.311-15.95l3.622-1.204l-0.461-2.823l4.796,3.657l2.086-2.059l4.581,0.433l-0.702,3.061l4.728-1.643l-0.713,2.896l1.821,0.589
		l-1.521,4.322l2.056,0.294l0.372-3.698l1.998,1.085l0.832,3.073l-2.568,0.401l-0.161,3.018l-4.026,4.811l1.645,7.238l6.407,2.928
		l11.653-0.113l4.974,4.883l2.846-0.379l5.212,3.854l-0.286,4.428l4.931,4.646l14.465,4.558l6.479,6.579l3.866-0.09L249.736,154.09"
		/>
	<path id="path80_1_" fill="#FFFFE9" stroke="#000000" stroke-width="3.0222" stroke-linecap="square" stroke-linejoin="bevel" d="
		M220.803,357.486l-0.088,2.961l5.444,10.599l0.884,6.247l-11.269,9.631l-1.092,3.461l1.635,4.299l-8.179,4.118l4.006,6.731
		l0.959,7.126L211,415.455l0.989,4.539l-1.331,6.566l-1.8,1.639l-7.129-1.686l-9.284-6.791l-4.869-0.324l-3.022,2.275l-8.039,1.538
		l-9.787-2.483l-2.982-5.244l-6.234-2.639l-0.083-3.924l-9.28-5.52l-20.206-23.371l-2.989-0.178l-2.717,2.844l-4.127,0.945
		l-1.822,0.128l-1.766-2.28l-5.873,1.555l-3.041,5.007l-2.6,0.314l-1.03-3.146l1.093-10.166l2.998-8.993l-0.266-8.556l-2.042-2.745
		l1.146-7.613l-1.239-3.161l9.085,1.843l1.568-5.486l3.677-0.259l1.436,2.837l2.657,0.797l2.178-1.752l8.806,0.804l4.536-2.613
		l1.722-4.805l4.226-3.975l0.368-8.225l4.157-3.138l1.367-5.939l4.422-1.946l2.94-3.601l3.733,2.031l1.634-1.303l-2.077-0.361
		l-4.612-6.568l-2.72-0.734l-0.904-7.09l-5.815-6.237l0.111-4.265l-7.597-6.53l-0.564-5.633l-9.942-5.206l-2.904-3.583
		l-3.624-11.575l1.082-3.907l11.17-1.579l3.955,1.243l6.492-2.277l8.145-7.021l8.076-2.107l7.111,3.583l4.35-0.151l0.217,1.723
		l2.639-1.124l7.992,2.162l8.221,4.229l2.163,4.13l2.08-1.272l3.883,3.644l3.275,0.446l4.902-6.324l2.556-0.962l5.246,0.257
		l1.468,1.694l4.838-9.761l2.915-1.336l-1.454-6.964l8.534-1.883l2.165,2.034l4.375-1.069l4.036-6.047l18.218-17.169l15.797,4.568
		l13.939-9.052l10.164,0.78l1.433,1.298l1.061-2.904l2.482,0.638l0.645,1.553l-7.188,14.428l-10.67,4.674l-0.291,10.897
		l-3.691,8.028l0.859,9.818l6.533,22.137l5.529,4.152l7.2-0.254l3.948,2.551l5.342,4.459l8.659,12.074l-2.832,8.384l-6.88,4.56
		l-15.113,4.559l-8.806-0.81l-7.749,14.076l-4.712,14.093l-3.835,3.826l-0.003,2.814l-1.91,0.701l0.29,1.375l-6.346,2.275
		l-0.46,2.213l-6.673-0.963l-0.782-8.481l-1.459-0.451l-9.007,3.775l-3.322,4.658l-5.495,1.601l-2.721,3.003L220.803,357.486"/>
	<path id="path82_1_" fill="#FFFFE9" stroke="#000000" stroke-width="3.0222" stroke-linecap="square" stroke-linejoin="bevel" d="
		M256.526,401.912l-4.923-4.714l-3.859,1.526l-2.604,4.301l-2.175,9.746l-22.059,7.762l-7.079,8.359l-3.851-1.016l2.012-7.883
		L211,415.455l2.104-2.796l-0.959-7.126l-4.006-6.731l8.179-4.118l-1.635-4.299l1.092-3.461l11.269-9.631l-0.884-6.247
		l-5.444-10.599l0.088-2.961l13.313-0.769l2.721-3.003l5.495-1.601l3.322-4.658l9.007-3.775l1.459,0.451l0.782,8.481l6.672,0.963
		l0.461-2.213l6.346-2.275l-0.29-1.375l1.91-0.701l0.003-2.814l3.835-3.826l4.712-14.093l7.749-14.075l8.806,0.809l15.112-4.559
		l6.881-4.56l2.832-8.384l-8.659-12.074l-5.342-4.459l-3.948-2.551l-7.2,0.254l-5.529-4.152l-5.94-19.026l4.401-2.614l10.752,4.244
		l3.718-1.424l5.376,1.793l7.623-1.334l10.716,2.791l12.089,7.118l4.243-2.116l3.631,1.046l5.46-1.431l3.934,1.58l3.655-1.223
		l1.22,4.082l-1.867,4.768l9.527,3.424l9.459-0.895l1.955-4.642l6.495,0.077l6.741-7.954l4.563,1.288l11.148-2.953l13.764,3.806
		l6.941-0.509l7.502-2.827l-0.375,2.011l-6.59,4.496l-2.919,6.194l5.69,6.679l11.353,5.43l3.53,4.466l-0.746,8.508l-9.42,5.47
		l-3.346,5.817l-0.387,14.139l3.127,1.589l2.511,4.607l1.049,8.178l-8.486,3.094l-5.731,5.442l-3.936-0.728l-2.405-2.57
		l-4.327-0.246l-1.063-2.43l-3.421,0.211l-2.813-4.118l-4.406,1.771l0.331,3.696l-8.4,0.273l-23.529-7.243l-3.78,5.458l-3.542,1.13
		l-0.285,3.965l1.764,5.686l4.951,0.087l0.535,4.883l-10.109,10.104l-6.185,8.714l0.181,6.393l-7.397,3.402l-4.334,5.811
		l-2.556-4.997l-4.313,6.934l-1.617-0.799l-6.151,5.185l-5.295,0.289l-4.9,10.093l-4.393,3.741l-15.465-0.508l-5.896,5.844
		l-3.752-0.24l-13.181-2.972l-3.435-2.753l-0.216-5.594l-7.665-0.094l-4.244,1.553L256.526,401.912"/>
	<path id="path84_1_" fill="#FFFFE9" stroke="#000000" stroke-width="3.0222" stroke-linecap="square" stroke-linejoin="bevel" d="
		M342.316,121.818l5.266,1.674l5.899,9.564l0.705,5.186l2.856,4.726l0.802,8.108l5.141,9.885l-0.341,9.385l-4.227,8.283l0.605,7.936
		l-4.765,11.145l-8.139,11.936l-2.095-0.962l-1.054,3.481l-4.077,0.031l1.548,2.793l-3.651,0.971l-1.826,4.473l-0.009,5.878
		l-5.028,8.501l-13.176,12.272l-6.927,0.934l-7.708-4.523l-5.813-1.279l-0.825-4.795l-1.77-0.441l-3.405,14.065l-4.992,2.458
		l-1.452-12.929l3.691-8.028l0.291-10.897l10.67-4.674l7.258-15.314l-3.108-1.359l-1.149,2.96l-1.433-1.298l-10.164-0.78
		l-13.939,9.052l-15.797-4.568l-18.218,17.169l2.483-5.905l-1.12-2.262l6.069-11.411l5.157-16.573l7.663-13.553l-4.843-6.72
		l0.607-2.331l-3.9-5.752l-2.974-0.344l-2.436-5.383l-3.543,0.332l-6.93-6.863l-14.465-4.558l-4.931-4.646l0.483-4.215l-5.254-3.982
		l-3.001,0.295l-5.087-4.939l-11.54,0.17l-6.406-2.928l-1.645-7.238l4.026-4.811l0.161-3.018l2.568-0.401l-0.832-3.073l-1.997-1.085
		l-0.372,3.698l-2.056-0.293l1.521-4.323l-1.821-0.589l0.972-2.694l-5.503,1.323l1.595-2.364l-1.234-0.884l-3.724-0.127
		l-2.086,2.059l-4.596-3.705l0.261,2.871l-1.668,0.013l1.813-6.851l-2.891-1.652l-2.249,3.535l-3.173-2.524l-1.278,2.518
		l-1.727-0.317l-2.492-4.64l-0.558-18.657l2.119-2.747l4.501,0.87l0.711-3.884l7.706-1.403l2.199-2.734l0.309-7.133l3.933-0.016
		l1.974,1.955l1.399-2.936l2.315-0.059l6.399-5.47l2.643,0.796l2.948-1.538l7.114,4.394l3.544-1.662l11.728,5.227l3.397-3.798
		l4.604-0.365l5.483,5.236l0.098,3.786l2.506,0.555l5.408,0.283l4.728-4.324l9.514-0.34l2.194,1.635l2.93,6.751l3.805,0.028
		l7.673,6.088l-1.925,5.277l0.456,3.461l3.854-0.914l1.664,2.271l3.766-1.619l2.203,1.543l1.622-2.531l4.729,5.98l-0.562,4.767
		l1.584,0.921l6.479,1.411l3.255-1.066l9.654,4.278l4.342-2.025l9.723,1.65l11.045,18.576l0.206,4.773l2.035,3.623L342.316,121.818"
		/>
	<path id="path86_1_" fill="#FFFFE9" stroke="#000000" stroke-width="3.0222" stroke-linecap="square" stroke-linejoin="bevel" d="
		M523.968,199.662l-9.953-0.276l-2.246-9.188l5.642-7.869l13.518-2.084l1.227,1.154l-0.416,12.404l4.155,4.837l-3.658,1.739
		l-3.175-1.473L523.968,199.662"/>
	<path id="path88_1_" fill="#C6ECFF" stroke="#000000" stroke-width="3.0222" stroke-linecap="square" stroke-linejoin="bevel" d="
		M92.547,308.643l-8.74-4.449l-1.106-4.449l9.493-3.507l6.411,1.258l0.794,9.168L92.547,308.643"/>
	<path id="path90_1_" fill="#FFFFE9" stroke="#000000" stroke-width="3.0222" stroke-linecap="square" stroke-linejoin="bevel" d="
		M70.929,343.292l-21.059-14.7l-2.221-19.454l8.66,0.679l6.626-3.72l9.004-2.412l5.559-9.905l2.023-0.998l-0.724-2.707l3.588-1.793
		l-1.649-4.324l0.96-2.561l-2.639-3.682l-2.412,1.385l-27.135-1.976l-8.511,8.695l-7.094-11.562l-0.166-5.801l-12.878-11.236
		l-0.194-4.771l4.43-1.637l3.057-6.772l-10.178-19.77l0.875-16.169l7.313,5.344l4.38-6.715l1.788,7.384l2.611,2.019l2.712-0.994
		l1.259,1.051l7.216-5.702l8.509,1.028l4.296-0.82l1.29-2.141l5.404,1.446l3.665-1.849l3.312,1.021l2.852-3.572l3.819,1.543
		l1.765,4.361l10.059,12.029l30.431,27.938l3.624,11.575l2.904,3.583l9.942,5.206l0.564,5.633l7.597,6.53l-0.111,4.265l5.815,6.237
		l0.904,7.09l2.72,0.734l4.612,6.568l2.077,0.361l-1.634,1.303l-3.733-2.03l-2.94,3.6l-4.422,1.946l-1.368,5.94l-4.157,3.137
		l-0.368,8.225l-4.227,3.975l-1.721,4.805l-4.536,2.614l-8.806-0.805l-2.178,1.752l-2.657-0.797l-1.436-2.837l-3.677,0.259
		l-1.568,5.486l-9.085-1.843l1.239,3.161l-1.146,7.613l2.116,3.175l-0.635,5.997L70.929,343.292 M84.868,299.92l-2.499,0.261
		l0.54,3.089l7.415,5.275l9.074-1.882l-0.692-9.064l-1.941-1.075l-9.702,1.109L84.868,299.92 M70.855,212.301l3.82,2.355
		l4.449-2.433l-4.449,2.433L70.855,212.301"/>
	<path id="path92_1_" fill="#FFFFE9" stroke="#000000" stroke-width="3.0222" stroke-linecap="square" stroke-linejoin="bevel" d="
		M81.083,284.739l1.304,3.542l-3.588,1.793l0.724,2.707l-2.023,0.998l-6.159,10.361l-8.404,1.956l-6.626,3.72l-8.66-0.679
		l-1.993-16.133l-4.658-7.186l8.424-8.659l27.223,1.939l2.412-1.385l2.639,3.682L81.083,284.739"/>
	<path id="path94_1_" fill="#FFFFE9" stroke="#000000" stroke-width="3.0222" stroke-linecap="square" stroke-linejoin="bevel" d="
		M581.742,225.162l-7.487,7.25l-23.083,0.143l-8.475,11.389l-1.889-1.27l-6.943,0.572l-0.66-3.052l-4.75,1.653l-1.97-1.356
		l-7.688,0.276l-4.882,6.997l-5.258,1.251l-4.935,5.457l-3.255,13.92l3.492,1.558l6.833-1.747l3.675,3.046l-2.549,3.312l-0.78,7.172
		l-2.933,0.575l-1.383,3.092l-2.342,1.026l-1.515,3.939l0.854,3.009l-2.659,1.354l2.798,4.418l5.712-0.372l3.192,1.853l-7.423,5.703
		l-5.12,1.853l-7.463-0.411l-9.986-23.045l7.476-12.429l1.536-9.163l-1.373-24.885l1.68-15.796l-2.767-5.478l-3.821-3.109
		l-2.771-14.539l2.354-3.756l-2.294-1.412l1.282-2.103l5.841-1.282l1.325-2.314l-1.317-2.999l1.566-3.406l0.571-11.46l-7.574-0.211
		l-1.2-4.184l-6.758,0.579l-6.149-8.01l-2.92-14.243l-4.027-0.714l-2.995-3.378l-9.392,0.84l-1.604,6.047l3.355,3.279l-1.721,1.424
		l-9.945-9.004l-8.266,4.614l-0.242,1.78l-1.729-2.758l-2.765-0.436l-0.273-1.774l5.851-5.34l3.771,0.05l4.354-3.697l10.428-2.779
		l2.184-9.421l23.323-0.151l10.879,10.82l16.1,5.928l6.43,5.025l6.873,8.747l6.334,1.911l22.349-17.092l72.137-11.229l4.91,5.895
		l11.247,6.801l8.969,8.035l7.581,17.18l24.36,34.14l-0.442,3.202l-3.196,3.229l1.839,4.23l-0.278,4.169l-1.894,1.673l1.303,4.106
		l-2.098,3.29l-7.968,2.983l-1.659-4.09l-9.103-2.051l-33.756,9.579l-1.747,2.85l-3.601,0.666l-15.403,0.336l-7.329-8.427
		L581.742,225.162 M519.517,182.161l-5.256,3.144l-2.493,4.893l2.246,9.188l14.604-0.511l3.616,1.504l3.502-1.455l-4.106-5.548
		l0.319-12.373l-4.229-0.809L519.517,182.161"/>
	
		<path id="path96_1_" fill="#B0000F" fill-opacity="0.9412" stroke="#000000" stroke-width="3.0222" stroke-linecap="square" stroke-linejoin="bevel" d="
		M515.167,43.593l-2.484,8.432l1.513,1.98l-1.851,0.236l-0.528,5.097l-2.465,3.77l0.823,1.355l-4.656,4.851l-6.343,0.905
		l-3.357,2.36l-3.619,17.937l-5.904,11.896l-6.185,21.508l-16.179-1.443l-9.389,0.784l-2.184,9.421l-10.429,2.779l-4.354,3.697
		l-5.035,0.643l-7.927,9.255l-2.103,0.417l-0.122,2.197l-3.701,0.93l-3.574-3.281l-5.388-1.656l1.469,4.718l-3.912,0.583
		l-1.365,8.608l-2.827-0.696l-0.305-2.805l-2.806,0.898l-5.518-3.219l-4.395,0.491l-9.015-9.81l-5.817,0.191l-4.167-1.939
		l-4.163,0.577l-1.942,1.458l0.555,2.049l-4.274,1.454l-0.845,5.304l-3.357-7.15v-5.407l-6.82-15.964l-2.641-3.512l-5.266-1.674
		l-5.292-4.211l-2.035-3.623l-0.206-4.773l-8.18-11.964l0.979-3.406l3.936-1.898l0.798-2.669l4.734-1.742l1.68-3.766l5.041,1.873
		l0.988-5.586l2.396-3.295l2.577-2.588l4.166,0.911l-0.715-4.218l6.557-9.055l14.957-10.346l13.436-12.759l5.686-6.86l4.476-9.261
		l6.108-5.777l17.457-0.013l47.647,9.295l1.961,3.195l10.745-6.327l6.41-0.578l0.441-6.788l3.002-0.489l4.692,5.952l-0.782,5.903
		l1.747,1.911l6.828-0.27l5.4,1.867l2.265,6.43l-2.068,3.017L515.167,43.593"/>
	<path id="path98_1_" fill="#FFFFE9" stroke="#000000" stroke-width="3.0222" stroke-linecap="square" stroke-linejoin="bevel" d="
		M703.689,207.15l-1.442,0.211l0.211-2.303L703.689,207.15"/>
	<path id="path100_1_" fill="#FFFFE9" stroke="#000000" stroke-width="3.0222" stroke-linecap="square" stroke-linejoin="bevel" d="
		M652.113,75.239l1.615,0.967l-9.396,5.125l0.612-5.333L652.113,75.239"/>
	<path id="path102_1_" fill="#FFFFE9" stroke="#000000" stroke-width="3.0222" stroke-linecap="square" stroke-linejoin="bevel" d="
		M643.79,75.297l1.322,2.951l-1.742,2.094l-2.499-3.921L643.79,75.297"/>
	<path id="path104" fill="#FFFFE9" stroke="#000000" stroke-width="3.0222" stroke-linecap="square" stroke-linejoin="bevel" d="
		M519.412,43.619l6.869,7.633l8.556,4.79l1.047,3.134l2.343-0.986l6.266,1.148l6.146,5.345l-0.156,2.709l11.3,0.267l1.25,4.028
		l4.558,0.328l16.613-6.894l8.801,2.596l13.877,1.111l17.318,6.721l4.227,2.129l-0.617,1.229l11.45,0.571l4.864,3.844l11.986-6.053
		l13.469,0.371l3.362-1.389l2.057-3.278l1.765,0.705l4.943,8.546l2.825,12.24l0.7,6.875l-3.119,6.333l-0.319,5.288l13.092,23.837
		l-0.994,10.873l1.152,6.633l-3.398,10.755l-0.423,7.088l5.792,22.405l5.356,10.171l-1.488,0.133l-1.192-2.604l-2.165,0.907
		l1.133-1.427l-2.602-0.482l0.329-1.918l-1.224,1.117l-1.697-2.338l-3.68,0.858l-0.343-2.368l-13.406,2.669l-1.177-1.062
		l-23.184-33.078l-7.581-17.18l-8.97-8.035l-11.246-6.801l-4.91-5.895l-72.137,11.229l-17.453,14.195l-5.995,2.944l-7.25-3.599
		l-4.858-7.107l-6.429-5.025l-17.532-7.17l-7.202-8.768l0.463-4.375l2.995-5.614l2.727-11.519l5.904-11.896l2.477-14.994
		l2.855-4.262l7.987-1.946l4.656-4.851l-0.823-1.355l2.465-3.77l0.528-5.097l1.851-0.236l-1.513-1.98l1.724-7.416l1.207-1.337
		L519.412,43.619"/>
	<g id="g118" transform="translate(2.906004,2.906004)" vector-effect="non-scaling-stroke">
	</g>
</g>
</svg>
