<?xml version="1.0" encoding="utf-8"?>
<!-- Generator: Adobe Illustrator 13.0.0, SVG Export Plug-In . SVG Version: 6.00 Build 14948)  -->
<!DOCTYPE svg PUBLIC "-//W3C//DTD SVG 1.1//EN" "http://www.w3.org/Graphics/SVG/1.1/DTD/svg11.dtd">
<svg version="1.1" id="Layer_1" xmlns="http://www.w3.org/2000/svg" xmlns:xlink="http://www.w3.org/1999/xlink" x="0px" y="0px"
	 width="723.664px" height="485.813px" viewBox="0 0 723.664 485.813" enable-background="new 0 0 723.664 485.813"
	 xml:space="preserve">
<g>
	<path id="path3337" fill="#C6ECFF" d="M3.611,6.541h720v480h-720V6.541"/>
	<path id="path3341" fill="#F7D3AA" stroke="#A08070" stroke-width="5.812" stroke-linecap="square" stroke-linejoin="bevel" d="
		M643.787,109.807l-1.298-0.146l1.85-0.427L643.787,109.807"/>
	<path id="path3343" fill="#F7D3AA" stroke="#A08070" stroke-width="5.812" stroke-linecap="square" stroke-linejoin="bevel" d="
		M3.611,114.507v55.123l1.181,0.889l10.307,24.03l9.729,11.031l1.035,4.871l4.516,5.709l-0.432,2.324l12.237,15.889l23.021,16.747
		l10.879,6.344l1.791,0.152l3.48,4.56l-0.158,2.179l20.734,10.352l19.191,15.914l0.825,2.407l-1.454,1.778l3.569,6.306l-0.096,1.784
		l-1.715,1.651l5.583,6.16l1.429,4.014l-0.406,2.216l-3.118,0.928l-1.366,2.051l1.702,2.985l0.419,3.403l53.205,39.755l5.493,5.671
		l6.465,3.912l2.68,3.74l8.599,7.303l2.26,3.709l-0.254,2.395l16.791,5.436l15.502,8.853l11.57,9.228l1.537,2.775l3.372,1.677
		l1.429,3.956l2.909,2.306l0.323,1.581l-1.32,1.441l2.223,3.22l2.381,0.495l1.404-1.911l2.819,0.495l3.207,2.496l1.264,2.585
		l-1.137,1.955l1.563,1.468l1.562,0.647l1.099-1.22l2.229-0.044l5.163,1.423l3.804,2.362l0.667,3.004l4.902,1.276l3.894-7.411
		l1.765,0.285l2.623-2.622l2.267-0.102l6.167-3.741l1.899-3.232l5.512-2.343l0.267-2.108l-2.292-2.197l-1.314,0.406l-4.084-2.451
		l-3.804,0.87l0.813-1.931l3.2-2.324l-1.244-5.652l-2.058-3.055l-1.467-0.102l-0.724-2.451l-4.51-2.032l-3.695,0.172l4.255-4.916
		l-1.931-3.271l-5.627-0.73l-5.125,5.589l-5.766,1.302l-6.064-6.064l-4.916-1.747l1.848-6.273l1.366-1.283l0.642-6.693l4.712-6.026
		l-0.255-2.547l-10.408-2.712l-6.764-3.067l-3.035-4.788l-4.28,0.267l-2.68-1.512l-4.224-0.546l-1.797,0.934l-2.763-1.461
		l-3.258,0.642l-2.54,1.797l-2.451-0.965l-2.604,0.546l-1.41,1.518l-1.213-0.305l-2.87-5.29l1.543-0.997l-0.33-2.025l-4.313-3.519
		l-3.366-1.066l-3.905-4.61l-6.471-3.595l-0.382-4.763l1.881-1.22l3.512,0.819l2.819-1.613l2.14-2.928l-4.623,0.108l-2.686-2.382
		l-0.73-1.962l-2.846-1.829l-1.835,0.438l-1.334,1.867l-2.229-0.344l-0.979,0.801l-2.044-1.988l-3.684,0.527l0.057-1.835
		l-4.35-2.902l-0.813-3.296l-2.826-0.787l-1.143-2.579l-5.252-3.67l-1.708-0.096l-2.433-4.604l-6.668-3.086l2.966-1.016l1.797-2.725
		l10.536-3.067l-0.152-3.271l1.975-7.253l1.791-2.939l3.886-1.963l1.353-2.14l-1.778-3.201l2.108-3.994l-0.127-2.864l4.75,0.889
		l1.524,1.392l3.321,3.918l0.686,3.854l1.486,0.896l1.346-2.877l3.43-3.144l0.769-4.235l5.411-2.179l-0.337-2.953l1.492-3.416
		l-1.124-1.976l1.226-2.152l-0.972-2.973l0.997-2.185l-1.257-3.194l-4.033-1.175l-6.046,2.261l-2.629-0.343l-1.017-4.007
		l1.715-2.025l-3.144,2.095l-4.369-0.33l-0.381-1.073l-2.629,0.33l-1.664-1.892l-1.022-3.988l-2.19-1.175l-2.973,1.898l-0.806,2.56
		l-8.707,0.851l-4.947,3.861l-0.419-1.238l-5.322-1.499l-3.353-2.877l-0.458-1.867l-3.734-0.597l-4.262-3.327l-1.054-2.935
		l2.058-3.149l-2.324-1.289l0.806-5.068l-0.705-6.966l-3.062-4.51l-2.108-0.419l-1.816-2.051l-4.744-0.254l-0.756-1.169l-9.106,3.43
		l-2.502-3.029l-5.544-1.309l-2.401-5.646l-1.416-7.913l-11.679-6.77l-0.413-5.277l-2.02-2.616l-2.667-0.419l-2.413-2.026
		l-0.813-3.613l-4.445-1.048l-5.792-4.242l-3.036-0.196l-1.886,1.416l-5.017,0.959l-6.109-1.55l-1.86-3.271l-3.887-1.645
		l-0.051-2.451l-5.792-3.442l-12.606-14.581l-1.867-0.114l-1.696,1.778l-2.579,0.591l-1.137,0.076l-1.099-1.423l-3.664,0.972
		l-1.899,3.125l-1.62,0.196l-0.616-2.35l0.794-6.617l1.721-4.719l-0.584-1.664l-17.534-10.142L3.611,114.507L3.611,114.507z
		 M130.019,305.41l0.355,1.061l-0.94-0.59L130.019,305.41z"/>
	<path id="path3345" fill="#F7D3AA" stroke="#A08070" stroke-width="5.812" stroke-linecap="square" stroke-linejoin="bevel" d="
		M633.378,95.892l-0.139,1.16l-2.119,0.539L633.378,95.892"/>
	<path id="path3347" fill="#F7D3AA" stroke="#A08070" stroke-width="5.812" stroke-linecap="square" stroke-linejoin="bevel" d="
		M583.075,98.608l0.007,1.591l-0.857-2.38l1.529-0.308l0.275,0.781l0.403-1.408l1.49,0.808l1.406-1.683l-1.271,2.043l-1.594-0.641
		l-0.026,1.204l-1.329-0.658L583.075,98.608"/>
	<path id="path3349" fill="#F7D3AA" stroke="#A08070" stroke-width="5.812" stroke-linecap="square" stroke-linejoin="bevel" d="
		M467.152,118.72l4.161,0.265l3.466,1.467l1.903,1.813l0.573,2.391l-3.107,2.605l0.986,3.243l-3.523,11.324l-2.643,4.181
		l-0.23,7.342l-1.735,4.311l1.263,6.377l-2.274,3.062l-2.074-9.585l2.033-3.764l-1.988-7.294l0.653-5.689l-2.524-20.613
		L467.152,118.72"/>
	<path id="path3351" fill="#F7D3AA" stroke="#A08070" stroke-width="5.812" stroke-linecap="square" stroke-linejoin="bevel" d="
		M441.366,120.881l-0.763-0.269l1.771-3.376L441.366,120.881"/>
	<path id="path3353" fill="#F7D3AA" stroke="#A08070" stroke-width="5.812" stroke-linecap="square" stroke-linejoin="bevel" d="
		M441.813,448.163l-0.723-1.767l3.975,2.839l-0.342,1.241l0.9-0.027l0.242,1.241l-0.674-0.028l0.357,0.95l-0.945-0.245l1.785,0.922
		l-1.176,0.792l1.656,0.328l-0.696-0.004l0.349,1.235l-0.783-1.08l-0.693,0.894l-0.024-1.561l-1.696-0.519l0.926-0.346l-0.218-1.354
		l-0.581,0.308l0.394-2.045l-0.807,1.584l-0.069-1.059l-0.643,0.675l0.458-1.26l-1.841-1.635l3.117,0.96L441.813,448.163"/>
	<path id="path3355" fill="#F7D3AA" stroke="#A08070" stroke-width="5.812" stroke-linecap="square" stroke-linejoin="bevel" d="
		M68.876,148.883l-0.68-0.654l0.832-0.131L68.876,148.883"/>
	<path id="path3357" fill="#F7D3AA" stroke="#A08070" stroke-width="5.812" stroke-linecap="square" stroke-linejoin="bevel" d="
		M687.167,201.098l1.832,0.464l-0.485,1.379l-1.594,0.057L687.167,201.098"/>
	<path id="path3359" fill="#F7D3AA" stroke="#A08070" stroke-width="5.812" stroke-linecap="square" stroke-linejoin="bevel" d="
		M571.744,127.738l1.702,0.956l-1.559,1.912l-1.074-2.72L571.744,127.738"/>
	<path id="path3361" fill="#F7D3AA" stroke="#A08070" stroke-width="5.812" stroke-linecap="square" stroke-linejoin="bevel" d="
		M683.949,198.593l0.458,1.296l-1.436-1.031L683.949,198.593"/>
	<path id="path3363" fill="#F7D3AA" stroke="#A08070" stroke-width="5.812" stroke-linecap="square" stroke-linejoin="bevel" d="
		M691.925,187.021l1.398,2.434l-1.617,2.236l-1.589-0.156l-0.446-1.604l2.083-1.381L691.925,187.021"/>
	<path id="path4524" fill="#F7D3AA" stroke="#A08070" stroke-width="5.812" stroke-linecap="square" stroke-linejoin="bevel" d="
		M54.676,6.541H3.611V38.91l2.153-0.407l0.8-1.34l3.372,0.902l2.286-1.149l2.07,0.635l1.778-2.229l2.381,0.966l0.927,2.045
		l5.519-2.832l2.648,0.724l6.02-10.523l7.57-4.489l7.9-6.706l3.086-5.582L54.676,6.541z"/>
	<path id="path3367" fill="#F7D3AA" stroke="#A08070" stroke-width="5.812" stroke-linecap="square" stroke-linejoin="bevel" d="
		M448.576,200.947l1.354,0.717l-2.361-0.289L448.576,200.947"/>
	<path id="path3369" fill="#F7D3AA" stroke="#A08070" stroke-width="5.812" stroke-linecap="square" stroke-linejoin="bevel" d="
		M454.42,199.358l0.389-1.388l1.452-0.14L454.42,199.358"/>
	<path id="path3371" fill="#F7D3AA" stroke="#A08070" stroke-width="5.812" stroke-linecap="square" stroke-linejoin="bevel" d="
		M456.578,197.221l-2.069,0.215l1.299-3.361l-1.954-1.196l4.095-4.596l0.142,3.458L456.578,197.221"/>
	<path id="path3373" fill="#F7D3AA" stroke="#A08070" stroke-width="5.812" stroke-linecap="square" stroke-linejoin="bevel" d="
		M460.103,180.077l-2.275,7.878l-4.087,4.862l-0.991-0.66l0.687-1.471l-1.373,0.184l-0.178-1.324l0.958-0.765l1.896,0.686
		l0.02-1.479l-1.73-0.582l0.379-1.376l1.184,1.316l0.811-0.535l-1.217-3.047l0.948-1.222l1.345,0.893l1.02-1.655l-0.667-1.592
		l2.141-0.18l-0.233-1.494l1.1-0.003L460.103,180.077"/>
	<path id="path3375" fill="#F7D3AA" stroke="#A08070" stroke-width="5.812" stroke-linecap="square" stroke-linejoin="bevel" d="
		M452.908,172.037l2.093-1.205l4.145,3.207l-0.838,3.763l0.771,1.899l-2.256,0.383l0.595,1.804l-0.946,1.477l-1.396-0.877
		l-0.897,1.19l1.03,3.369l-1.786-1.1l-2.136,0.39l-1.129,2.099l-0.652-1.79l-1.531,0.918l-1.311-1.585l0.886-3.647l-1.034-2.82
		l2.104,0.063l1.508-1.646l-2.208-0.499l0.842-4.198l1.19-1.394l-0.458-1.808L452.908,172.037"/>
	<path id="path3377" fill="#F7D3AA" stroke="#A08070" stroke-width="5.812" stroke-linecap="square" stroke-linejoin="bevel" d="
		M464.841,154.428l-1.02-0.67l-3.283-8.656l2.933-1.813l0.165,5.556l1.987,4.823L464.841,154.428"/>
	<path id="path3379" fill="#F7D3AA" stroke="#A08070" stroke-width="5.812" stroke-linecap="square" stroke-linejoin="bevel" d="
		M460.211,125.258l2.815,7.293l1.059,8.553l-3.672,4.094l4.051,9.232l-1.07,3.649l2.232,11.146l-0.382,3.464l-4.51,5.792
		l-2.198-0.34l0.785-4.102l-4.222-3.421l-2.028,1.332l-5.342-3.879l-3.843,1.009l-1.927,1.56l-0.771-3.697l1.704-4.041l3.276-0.848
		l0.459-0.977l-0.951-7.442l-2.559-2.276l4.594-8.716l3.189-1.462l-1.581-4.587l3.005-2.65l3.348-1.079l-1.523-5.143l1.127-2.688
		L460.211,125.258"/>
	<path id="path3381" fill="#F7D3AA" stroke="#A08070" stroke-width="5.812" stroke-linecap="square" stroke-linejoin="bevel" d="
		M480.316,239.366l1.466,1.629l-1.265-0.068L480.316,239.366"/>
	<path id="path3383" fill="#F7D3AA" stroke="#A08070" stroke-width="5.812" stroke-linecap="square" stroke-linejoin="bevel" d="
		M398.299,30.193l0.858-0.485l0.948,1.673l1.663-0.697l0.955,1.425l0.764-0.697l-0.204,1.196l1.622,0.302l-0.705,0.89l1.352-0.565
		l0.744,1.624l0.871-0.043l-0.02,1.606l2.014,0.617l2.076,3.034l2.121,6.374l-0.772,4.362l-5.157,2.906l-3.426,5.73l1.383,1.562
		l-0.852,4.817l1.771,0.103l1.277,2.099l1.306,0.083l1.867-0.91l2.906-8.526l5.498,1.664l7.116,6.523l-0.142,1.748l-2.037,0.537
		l-2.314,2.807l1.066,1.544l2.191,0.32l3.016-1.471l3.785,3.673l2.165,0.673l2.177-0.527l14.858,1.77l4.836,5.198l2.669,7.822
		l1.078,9.367l-1.193,1.925l-6.863,6.247l-1.395-0.095l-5.825,4.48l-5.369,9.677l-4.008-1.971l-2.952,0.086l0.401,1.474l1.087-0.547
		l0.351,1.534l3.081,2.019l0.363,1.277l2.592,0.944l3.782-1.21l6.396-5.121l1.668-2.452l-0.674-3.345l1-2.06l6.812-0.824
		l2.226,1.365l-1.638,9.245l-4.123,1.411l-1.5,2.153l-0.107,2.58l1.564,3.632l-3.324,0.836l-2.697,2.283l-0.394,1.268l1.574,4.204
		l-3.221,1.23l-4.327,7.89l0.146,1.635l2.373,1.792l-0.146,4.192l1.036,2.833l-4.231,2.354l-1.258,3.2l0.299,3.912l0.985,0.734
		l1.837-1.729l3.305-0.998l1.615,0.658l0.955,2.729l-1.248,1.443l-0.854,4.353l2.244,0.229l-1.431,1.686l-2.17-0.032l1.042,2.681
		l-0.816,3.854l1.325,1.634l1.627-0.871l0.644,1.753l1.142-2.086l1.964-0.404l-0.257,1.693l1.601,0.24l0.051,1.523l-2.04-0.682
		l-0.787,1.843l1.423-0.074l-0.657,1.595l2.992,1.953l-3.01,6.367l-1.986,1.209l-2.432-0.875l-1.762,1.657l4.006,0.238l3.223-1.479
		l5.362-7.038l-0.461-5.2l1.917-7.813l4.356-5.2l1.411-3.328l0.206-5.199l1.956-2.139l-0.929-7.476l1.488-2.743l0.688-9.557
		l2.53-3.204l3.703-10.895l-1.104-4.167l2.58-0.994l2.239-3.28l4.404,0.325l1.247,0.785l-0.565,1.292l0.7,0.127l6.379-4.369
		l6.314-2.826l11.033,6.109l14.489,2.157l7.785-0.618l9.502,1.493l2.424,1.006l-1.773,1.074l1.586,0.646l3.075-0.701l3.904-2.946
		l1.396,2.239l0.346,3.532l-3.213,8.464l-0.572,6.492l0.902,5.597l2.148,4.287l3.316,3.807l4.275,2.656l6.71,1.064l5.04-1.085
		l1.125,9.565l-1.015,7.378l0.691,6.42l3.173,6.104l4.989,4.742l4.704,1.66l6.362-0.671l2.789-2.022l2.524,2.761l3.777,0.188
		l4.078,2.134l2.004,10.602l-0.955,7.247l5.695,11.404l0.312,2.631l-1.968,3.283l-12.54,6.622l-3.813,2.858l-1.666,2.692
		l-1.233,0.177l-4.041,7.87l-1.608,0.189l-0.096,2.191l-3.36,6.881l-4.097,12.305l-0.698,9.95l1.523,5.518l2.559,4.146l2.318,0.002
		l7.239,3.78l4.31,6.727l-1.022,4.241l-7.072,11.488l-4.251,9.728l-2.28,11.071l0.077,5.021l-2.152,2.187l-2.593-5.849l-4.25-1.877
		l-0.895,0.146l-0.367,2.616l-2.768,1.368l-2.604-1.781l-3.255,0.619l1.243-4.046l-3.127-0.742l-0.84-2.928l-1.554,1.953
		l-1.965-0.563l-0.644-2.608l2.177-1.215l-0.235-1.179l-2.676,0.375l-1.939-1.172l-0.588,2.103l-1.574,0.005l0.614-3.478l2.33-3.182
		l-2.462-4.89l-2.641-1.479l2.549-1.442l-1.293-2.126l-2.205,1.521l-2.432-1.027l1.286-3.573l-3.339-2.592l-1.907,1.91l-1.003-0.211
		l-1.51-2.636l1.787-3.05l-0.468-1.227l-3.774,0.196l-1.63-2.472l-2.04,0.82l-4.059-0.275l0.105-5.359l-5.407-0.672l-3.036,2.515
		l-1.149-0.191l-1.032-6.224l-1.067-2.386l-1.469-0.557l-1.22,0.68l-1.449,3.473l-0.461,4.385l-2.611,0.787l-0.3,3.71l1.396,2.185
		l-2.062,4.267l-3.948,3.612l-1.854-2.223l-3.351,0.195l-3.185,1.912l-1.74,4.073l-1.757-0.889l-1.563,0.632l-0.329,1.651
		l0.975,1.189l-1.14,3.872l-0.927,1.243l-1.505-0.149l-1.365,2.777l0.264,1.466l1.61,0.509l-0.156,1.716l-2.969-0.223l-2.294,5.055
		l-2.002,1.418l0.069,3.614l-1.629,1.872l-2.847,0.785l-1.73,3.398l-5.722-0.329l-2.767,2.595l-2.338,0.015l-4.395,2.054
		l-0.346,1.054l-1.896,0.188l-0.238,2.03l-7.314,1.294l-2.478,0.993l-0.636,1.623l-3.785-2.412l-5.587,1.672l-7.044,0.334
		l-1.299-1.855l-3.71-0.672l-0.377-2.139l0.854-0.606l-0.917-0.84l-2.025,2.39l-6.868,3.478l-2.394,0.132l-1.034,2.064l-1.925,0.379
		l-2.104,2.266l-1.008-0.734l-2.188,2.736l-2.892-1.56l-4.082,4.322l-3.458,1.65l-0.728,3.276l-3.938,3.372l-2.852,10.284
		l0.823,3.166l-2.147,1.326l2.45,11.993l-4.814,4.342l0.12,2.546l-1.147,2.137l0.288,2.582l2.445,1.19l-0.578,6.6l3.082,6.044
		l1.8,1.367l3.657-0.542l-3.648,6.42l-4.31,1.834l-3.514-3.619l-2.017,3.446l-2.834,0.67l-2.791-3.19l-3.507,0.102l-1.082,3.799
		l-3.958,4.128l-8.126-1.143l-3.938-3.341l-1.301,1.363l-10.563,1.347l-3.771-3.033l5.842-2.196l0.346,1.042l2.335,0.621
		l1.673-0.754l0.538-2.318l-3.85-2.395l-0.978-2.043l-7.471-1.526l-1.188,0.684l0.502,1.266l-2.088,2.903l-2.021,1.215l-2.654,5.047
		l0.149,2.256l-2.259,0.233l2.46-8.837l-2.249-2.954l-3.063-0.958l-0.063-2.264l-2.956-1.031l-2.957,0.412l-0.578-2.849l-1.33,0.185
		l0.065-2.62l-2.091-1.685l-1.315,0.405l-4.087-2.45l-3.804,0.871l0.815-1.932l3.202-2.324l-0.588-3.348l-2.287-4.951l-1.895-0.507
		l-0.722-2.45l-4.515-2.032l-3.693,0.17l4.255-4.913l-1.485-2.966l-3.281-1.286l-2.789,0.252l-5.126,5.582l-5.765,1.306
		l-6.064-6.064l-4.982-1.839l1.91-6.183l1.365-1.283l0.641-6.691l5.007-6.607l-0.804-2.218l-10.15-2.46l-6.761-3.067l-3.038-4.793
		l-4.279,0.27l-2.681-1.513l-4.224-0.544l-1.799,0.931l-2.759-1.459l-3.259,0.644l-2.541,1.792l-2.451-0.962l-2.602,0.547
		l-1.413,1.517l-1.21-0.307l-2.873-5.287l1.545-0.999l-0.329-2.022l-4.312-3.519l-3.369-1.068l-3.908-4.612l-6.467-3.596
		l-0.381-4.759l1.877-1.222l3.511,0.82l2.82-1.61l2.142-2.931l-4.62,0.108l-2.687-2.383l-0.731-1.959l-2.847-1.831l-1.833,0.437
		l-1.333,1.867l-2.231-0.343l-0.98,0.802l-2.04-1.985l-3.685,0.523l0.054-1.831l-4.35-2.904l-0.812-3.297l-2.823-0.785l-1.146-2.578
		l-5.251-3.672l-1.708-0.096l-2.434-4.604l-6.665-3.089l2.964-1.013l1.801-2.724l10.531-3.069l-0.155-3.271l1.978-7.253l1.79-2.939
		l3.888-1.964l1.355-2.139l-1.78-3.203l2.106-3.994l-0.125-2.863l4.748,0.889l1.523,1.394l3.327,3.917l0.684,3.854l1.482,0.893
		l1.348-2.875l3.43-3.144l0.771-4.231l5.409-2.185l-0.334-2.946l1.488-3.418l-1.122-1.979l1.228-2.153l-0.975-2.967l0.995-2.187
		l-1.259-3.194l-4.027-1.178l-6.047,2.263l-2.63-0.343l-1.015-4.006l1.711-2.029l-3.141,2.097l-4.371-0.331l-0.379-1.071
		l-2.633,0.33l-1.661-1.891l-1.021-3.989l-2.193-1.178l-2.97,1.904l-0.808,2.559l-8.709,0.849l-4.943,3.86l-0.419-1.236
		l-5.326-1.502l-3.353-2.874l-0.457-1.865l-3.733-0.601l-4.261-3.326l-1.057-2.934l2.063-3.148l-2.323-1.291l0.8-5.066l-0.7-6.966
		l-3.065-4.51l-2.106-0.423l-1.816-2.049l-4.743-0.256l-0.757-1.168l-9.109,3.433l-2.501-3.03l-5.542-1.308l-2.399-5.649
		l-1.421-7.912l-11.673-6.767l-0.416-5.279l-2.019-2.614l-2.665-0.419l-2.416-2.027l-0.81-3.612l3.101,0.433l4.417-5.216
		l13.575-4.704l2.124-7.682l3.367-2.194l6.505,5.214l7.729-0.833l0.135,3.491l2.144,1.717l4.137,0.286l3.682,1.5l2.745,0.218
		l3.68-3.646l10.557-0.144l4.89-8.17l3.304-0.182l3.837-3.234l1.01,0.499l2.69-4.326l1.596,3.118l2.704-3.626l4.615-2.123
		l-0.113-3.988l3.859-5.438l6.308-6.304l-0.335-3.048l-3.089-0.054l-1.101-3.548l0.178-2.474l2.211-0.704l2.358-3.406l14.681,4.52
		l5.241-0.17l-0.206-2.307l2.749-1.104l1.756,2.568l2.134-0.131l0.662,1.516l2.701,0.154l1.5,1.603l2.456,0.455l3.576-3.397
		l5.294-1.93l-0.654-5.102l-1.566-2.876l-1.982-1.239l0.51-9.516l3.25-3.723l6.494-1.146l0.257,2.745l1.528,0.306l1.714,2.661
		l0.528-0.67l0.677,3.98l3.679,2.17l3.771,6.759l4.723,2.659l2.4,3.415l-0.301,1.404l2.896,0.328l1.979,2.515l-0.25-5.554
		l1.74-1.965l-0.247-3.06l1.022-2.187l-1.867-5.963l1.205-4.021l4.053,0.315l4.128-1.486l4.633-3.558l-1.992-1.156l-3.564,0.232
		l-1.745-2.757l1.659-0.846l-0.533-1.876l0.943-2.459l1.462-0.642l0.863-1.928l1.829-0.359l0.487-4.475l1.579-2.148l-2.282-1.818
		l-4.263,1.091l-2.198-1.108l2.05-8.549l3.079-3.404l3.415-0.896l2.595-4.058l5.111-0.365l1.231,0.846l2.962-1.032l0.412,1.904
		l4.332-0.357l1.179,0.793l5.29-7.105l14.4-0.09l4.932-4.608l5.33-0.006l4.574,5.258l3.588,0.116l7.896-0.577l1.461-1.941
		l21.063-5.978l5.682,1.279l0.878,2.522l1.108-0.174l4.018-1.658l1.311-2.052l-0.815-2.563l1.183-1.044l0.176-2.601l-1.157-2.567
		l2.004-2.087l0.021-1.859l7.299-1.961L398.299,30.193 M365.755,207.494l-1.627,1.227l-0.375-1.134l-0.555,0.978l2.004-0.035
		l0.082,0.931l1.179-0.48l0.852,0.969l1.788-0.402l-4.296-1.232L365.755,207.494 M477.942,232.435l-0.153,1.009l1.111,0.048
		l-2.114,0.894l-1.776-0.299l0.211-1.307l-2.501-0.089l-0.109,1.538l3.252,2.369l-1.604,1.021l-2.453-0.086l0.308,1.236l2.729,0.172
		l1.905-3.296l2.144,2.937l1.474,0.308l0.888-2.009l-3.338,0.289l1.147-0.884l-0.65-1.378l1.512-1.397L477.942,232.435
		 M481.523,232.794l-2.819,2.33l1.204,1.507l2.729-0.64l0.229-2.433L481.523,232.794 M482.591,236.39l-1.108,0.646l1.239,0.391
		L482.591,236.39 M481.809,237.49l-2.326,2.765l-1.853,0.519l0.607,1.87l0.624-0.932l1.271,1.187l1.143-1.46l1.479-0.17
		l-0.648-0.638l1.531-0.978l-2.114-0.848l2.321,0.612l0.129-0.769L481.809,237.49 M483.878,237.867l0.303,2.121l2.025-0.308
		l0.343-1.054l-0.909,0.466L483.878,237.867 M477.904,242.801l-0.519,0.918l-0.807-1.078l-1.036,1.032l1.821,0.955L477.904,242.801
		 M478.485,243.326l0.897,1.186l-0.84,0.912l1.622,0.3l-0.346-2.304L478.485,243.326 M429.132,246.081l2.261-1.945l-3.876,1.944
		l0.463,0.871l-2.22,2.312l2.279-1.742l0.265,0.934L429.132,246.081 M477.153,243.027l-0.067-2.449l-0.737,0.835L477.153,243.027
		 M424.694,241.334l0.748-0.628l-1.152-0.872l-1.754,1.357l1.714-1.013L424.694,241.334 M474.29,239.845l1.428,1.514l2.597-1.683
		l-0.101-1.045l-2.04-0.339L474.29,239.845 M432.321,236.897l0.163-1.237l-0.909,1.298L432.321,236.897 M453.801,265.842l1.433,1.38
		l-0.544-1.48L453.801,265.842 M451.864,268.052l0.12,0.79l-0.907-0.994l-0.183,0.912l2.177,1.604L451.864,268.052 M455.98,270.729
		l-1.86,2.21l1.776,2.496l1.029-0.629l-2.078-2.15l1.452,0.893l-0.301-0.993l0.766,0.142l-0.947-0.607l1.07-0.285l-1.313-0.487
		l0.686-0.548l1.172,0.956L455.98,270.729 M453.354,274.825l-0.29-2.562l-0.437,2.093l0.686,0.469l-1.25,0.566l-0.509-0.917
		l0.326,0.977l-1.313,0.609l2.057,3.003l-0.341-1.097l0.947,0.081l-1.652-2.15l2.742,0.609l-1.291-0.893L453.354,274.825
		 M448.47,273.625l0.705-0.283l-0.986-0.79L448.47,273.625 M445.321,279.118l0.12,1.198l1.009-0.365L445.321,279.118
		 M444.117,282.042l-0.202-1.013l-0.626,1.5l0.604-0.425l0.061,1.113L444.117,282.042 M441.431,282.548l-0.929-0.527l-0.986,1.094
		l1.37-0.606l0.019,2.493l1.534-1.034l-1.149-0.224l0.04-0.912l0.788,0.406L441.431,282.548 M314.961,294.663l0.979,0.123
		l-0.612-0.756L314.961,294.663"/>
	<path id="path3385" fill="#F7D3AA" stroke="#A08070" stroke-width="5.812" stroke-linecap="square" stroke-linejoin="bevel" d="
		M555.563,484.287l-0.061-1.814l0.937,1.198L555.563,484.287"/>
	<path id="path3387" fill="#F7D3AA" stroke="#A08070" stroke-width="5.812" stroke-linecap="square" stroke-linejoin="bevel" d="
		M336.102,443.548l-2.141,9.271l-6.945-6.13l2.814-6.806l2.021-1.215l2.088-2.903l-0.502-1.266l1.154-0.674l7.505,1.517l0.978,2.042
		l3.85,2.396l-0.538,2.318l-1.673,0.754l-2.336-0.622l-0.345-1.041L336.102,443.548"/>
	<path id="path3389" fill="#F7D3AA" stroke="#A08070" stroke-width="5.812" stroke-linecap="square" stroke-linejoin="bevel" d="
		M490.42,381.646l-0.828-0.046l0.711-0.964L490.42,381.646"/>
	<path id="path3391" fill="#F7D3AA" stroke="#A08070" stroke-width="5.812" stroke-linecap="square" stroke-linejoin="bevel" d="
		M473.274,380.807l-1.135-0.369l-0.015-1.124L473.274,380.807"/>
	<path id="path3393" fill="#F7D3AA" stroke="#A08070" stroke-width="5.812" stroke-linecap="square" stroke-linejoin="bevel" d="
		M482.488,380.433l-0.53-0.886l0.782-0.519L482.488,380.433"/>
	<path id="path3395" fill="#F7D3AA" stroke="#A08070" stroke-width="5.812" stroke-linecap="square" stroke-linejoin="bevel" d="
		M495.17,381.032l-1.531-0.168l-0.747-1.928l1.311,1.556l1.126-0.229L495.17,381.032"/>
	<path id="path3397" fill="#F7D3AA" stroke="#A08070" stroke-width="5.812" stroke-linecap="square" stroke-linejoin="bevel" d="
		M477.392,380.046l-1.833-0.478l0.739-2.249L477.392,380.046"/>
	<path id="path3399" fill="#F7D3AA" stroke="#A08070" stroke-width="5.812" stroke-linecap="square" stroke-linejoin="bevel" d="
		M440.905,285.001l-0.019-2.493l-1.37,0.606l0.986-1.094l1.334,0.242l0.281,0.975l-0.93,0.283l1.251,0.446L440.905,285.001"/>
	<path id="path3401" fill="#F7D3AA" stroke="#A08070" stroke-width="5.812" stroke-linecap="square" stroke-linejoin="bevel" d="
		M443.975,283.218l-0.082-1.113l-0.604,0.425l0.626-1.5l0.725,0.993L443.975,283.218"/>
	<path id="path3403" fill="#F7D3AA" stroke="#A08070" stroke-width="5.812" stroke-linecap="square" stroke-linejoin="bevel" d="
		M445.631,282.104l-1.293-1.663l1.556,0.486L445.631,282.104"/>
	<path id="path3405" fill="#F7D3AA" stroke="#A08070" stroke-width="5.812" stroke-linecap="square" stroke-linejoin="bevel" d="
		M445.461,280.316l-0.038-1.217l1.049,0.729L445.461,280.316"/>
	<path id="path3407" fill="#F7D3AA" stroke="#A08070" stroke-width="5.812" stroke-linecap="square" stroke-linejoin="bevel" d="
		M445.059,275.996l-0.847-0.71l1.09-0.061L445.059,275.996"/>
	<path id="path3409" fill="#F7D3AA" stroke="#A08070" stroke-width="5.812" stroke-linecap="square" stroke-linejoin="bevel" d="
		M448.329,273.666l-0.055-1.128l0.901,0.804L448.329,273.666"/>
	<path id="path3411" fill="#F7D3AA" stroke="#A08070" stroke-width="5.812" stroke-linecap="square" stroke-linejoin="bevel" d="
		M455.895,275.435l-1.775-2.496l1.999-2.311l1.313,1.097l-1.172-0.956l-0.686,0.548l1.313,0.487l-1.07,0.285l0.947,0.607
		l-0.766-0.142l0.301,0.993l-1.452-0.893l2.078,2.15L455.895,275.435"/>
	<path id="path3413" fill="#F7D3AA" stroke="#A08070" stroke-width="5.812" stroke-linecap="square" stroke-linejoin="bevel" d="
		M453.071,270.363l-1.935-1.238l-0.101-1.277L453.071,270.363"/>
	<path id="path3415" fill="#F7D3AA" stroke="#A08070" stroke-width="5.812" stroke-linecap="square" stroke-linejoin="bevel" d="
		M455.233,267.222l-1.433-1.48h0.888L455.233,267.222"/>
	<path id="path3417" fill="#F7D3AA" stroke="#A08070" stroke-width="5.812" stroke-linecap="square" stroke-linejoin="bevel" d="
		M480.107,245.745l-1.565-0.321l0.84-0.854l-0.811-1.367l1.248,0.217L480.107,245.745"/>
	<path id="path3419" fill="#F7D3AA" stroke="#A08070" stroke-width="5.812" stroke-linecap="square" stroke-linejoin="bevel" d="
		M477.02,244.644l-1.479-0.971l1.037-1.032l0.715,1.078l0.351-0.979l0.548,0.458L477.02,244.644"/>
	<path id="path3421" fill="#F7D3AA" stroke="#A08070" stroke-width="5.812" stroke-linecap="square" stroke-linejoin="bevel" d="
		M477.343,243.068l-0.994-1.655l0.737-0.835L477.343,243.068"/>
	<path id="path3423" fill="#F7D3AA" stroke="#A08070" stroke-width="5.812" stroke-linecap="square" stroke-linejoin="bevel" d="
		M424.694,241.334l-0.444-1.155l-1.714,1.013l1.754-1.357l1.152,0.872L424.694,241.334"/>
	<path id="path3425" fill="#F7D3AA" stroke="#A08070" stroke-width="5.812" stroke-linecap="square" stroke-linejoin="bevel" d="
		M475.657,241.368l-1.535-1.941l3.904-1.075l0.288,1.324L475.657,241.368"/>
	<path id="path3427" fill="#F7D3AA" stroke="#A08070" stroke-width="5.812" stroke-linecap="square" stroke-linejoin="bevel" d="
		M484.626,240.109l-0.398-2.517l1.412,1.5l0.909-0.466L484.626,240.109"/>
	<path id="path3429" fill="#F7D3AA" stroke="#A08070" stroke-width="5.812" stroke-linecap="square" stroke-linejoin="bevel" d="
		M480.134,242.898l-1.272-1.187l-0.624,0.932l-0.607-1.87l1.854-0.519l1.701-2.869l2.465,0.56l0.194,1.473l-2.32-0.612l2.114,0.848
		L480.134,242.898 M481.108,241.256l0.713-0.978l-1.711-0.834L481.108,241.256"/>
	<path id="path3431" fill="#F7D3AA" stroke="#A08070" stroke-width="5.812" stroke-linecap="square" stroke-linejoin="bevel" d="
		M482.198,237.541l-0.728-0.617l1.742-0.457L482.198,237.541"/>
	<path id="path3433" fill="#F7D3AA" stroke="#A08070" stroke-width="5.812" stroke-linecap="square" stroke-linejoin="bevel" d="
		M481.466,236.768l-1.819-0.273l-0.943-1.37l2.991-2.354l1.171,0.788l-0.058,1.782L481.466,236.768"/>
	<path id="path3435" fill="#F7D3AA" stroke="#A08070" stroke-width="5.812" stroke-linecap="square" stroke-linejoin="bevel" d="
		M474.633,239.009l-1.263-0.78l-1.197,0.595l-0.497-1.093l4.187-1.133l-3.252-2.369l0.109-1.538l2.501,0.089l0.25,1.557l3.084-0.354
		l-0.497-1.604l1.836,0.941l-1.596,1.887l0.736,1.205l-1.14,0.682l3.357-0.212l-0.888,2.009l-1.474-0.308l-2.144-2.937
		L474.633,239.009"/>
	<path id="path3437" fill="#F7D3AA" stroke="#A08070" stroke-width="5.812" stroke-linecap="square" stroke-linejoin="bevel" d="
		M365.968,208.283l0.896,0.018l0.357,1.301l0.742-0.706l1.14,0.65l-3.771-0.065l-0.13-0.951l-0.969,0.646l-1.126-1.237l1.113-0.313
		l0.101,1.077l1.434-1.208l-0.963,0.795L365.968,208.283"/>
	<path id="path3439" fill="#F7D3AA" stroke="#A08070" stroke-width="5.812" stroke-linecap="square" stroke-linejoin="bevel" d="
		M64.766,157.701l-2.24,0.547l0.407-1.704l1.534-0.858L64.766,157.701"/>
	<path id="path3441" fill="#F7D3AA" stroke="#A08070" stroke-width="5.812" stroke-linecap="square" stroke-linejoin="bevel" d="
		M26.733,99.614l-5.453-2.777l-0.69-2.775l5.922-2.188l4,0.785l0.496,5.72L26.733,99.614"/>
	<path id="path3443" fill="#F7D3AA" stroke="#A08070" stroke-width="5.812" stroke-linecap="square" stroke-linejoin="bevel" d="
		M584.827,87.146l-6.001-0.369l-0.463,1.519l-2.899,0.873l-0.105,2.551l-1.26-1.514l-2.098-0.146l0.002-1.367l1.605-0.126
		l-0.544,1.12l1.927,0.994l-0.82-1.703l1.97-1.368l0.67,1.046l-0.163-1.104l3.917-1.601L584.827,87.146"/>
	<path id="path3445" fill="#F7D3AA" stroke="#A08070" stroke-width="5.812" stroke-linecap="square" stroke-linejoin="bevel" d="
		M702.692,190.729l3.296,2.862l5.89,1.426l2.093,1.759l-0.583,2.987l-3.271,5.123l0.096,1.701l1.814,1.275l-3.372-0.021
		l-1.683,1.086l-1.154-1.39l-2.892,0.328l-4.146-1.776l-2.356-2.683l-7.944-3.736l2.545-2.832l0.364-2.466l7.289-2.377l-0.464-0.467
		l2.053-2.082L702.692,190.729"/>
	<path id="path3447" fill="#F7D3AA" stroke="#A08070" stroke-width="5.812" stroke-linecap="square" stroke-linejoin="bevel" d="
		M696.004,189.055l1.063,0.596l-1.855,1.161l-0.297-1.405L696.004,189.055"/>
	<path id="path3449" fill="#F7D3AA" stroke="#A08070" stroke-width="5.812" stroke-linecap="square" stroke-linejoin="bevel" d="
		M705.534,184.047l1.251,0.028l0.069,1.754l-3.206-0.886L705.534,184.047"/>
	<path id="path3451" fill="#F7D3AA" stroke="#A08070" stroke-width="5.812" stroke-linecap="square" stroke-linejoin="bevel" d="
		M699.532,183.255l0.813,0.316l-2.751,0.375l0.8-1.288L699.532,183.255"/>
	<path id="path3453" fill="#F7D3AA" stroke="#A08070" stroke-width="5.812" stroke-linecap="square" stroke-linejoin="bevel" d="
		M574.24,52.354l0.084-1.51l1.013,1.229L574.24,52.354"/>
	<path id="path3455" fill="#F7D3AA" stroke="#A08070" stroke-width="5.812" stroke-linecap="square" stroke-linejoin="bevel" d="
		M569.068,43.575l0.127,0.814l-0.854-0.744L569.068,43.575"/>
	<path id="path3457" fill="#F7D3AA" stroke="#A08070" stroke-width="5.812" stroke-linecap="square" stroke-linejoin="bevel" d="
		M587.85,13.931l0.614,1.624l-1.457,2.012l1.62,1.868l3.725,1.61l3.641-1.089l4.939,4.502l3.612,1.825l0.772,2.502l-2.846-0.701
		l-1.167,2.189l0.706,5.935l4.199,4.715l1.896,4.44l2.342,0.809l-0.503,1.635l1.216,2.067l3.723,2.172l-1.308,1.296l1.029,3.456
		l-2.047,0.132l0.216,0.787l1.274-0.88l0.545,0.899l0.209-0.832l0.693,1.507l-1.235,0.317l0.193,1.55l1.236-1.774l1.928,1.702
		l2.524,0.529l1.882,2.995l-1.198,2.847l-1.843,1.129l-0.777,3.586l0.822,1.626l-1.252,1.197l-0.262,2.13l1.709,9.566l-0.687,2.169
		l-1.445-0.552l2.239,1.686l2.208,4.531l-0.713,1.647l3.473,6.353l0.492,3.928l1.806-0.304l-1.223,1.483l2.023,3.274l-0.705,1.472
		l1.543,7.301l8.313,11.666l5.717,4.814l4.171,1.89l5.117,0.745l3.497-1l6.69,3.983l44.475,8.577l-2.182,2.316l-3.871,0.687
		l2.818-0.889l-1.692-1.289l-2.954,1.226l-1.939,2.574l-1.786-0.965l-6.36,5.429l-6.223,10.127l-8.328,22.365l-0.196,4.405
		l1.571,3.243l2.607,0.211l1.593,1.642l4.874,0.151l2.458,3.521l5.967,0.54l0.339,0.788l-1.918,2.359l1.783,3.135l-1.32,2.015
		l0.866,1.649l-2.503-0.342l-1.925,1.904l-2.376-1.084l-3.423,1.635l-1.729-2.408l-4.668,0.675l-1.563-1.561l-1.819,0.195
		l-3.583,1.801l-0.027,2.135l-1.778-0.991l-3.376,1.797l-2.746-3.056l0.977-2.819l-0.861-2.254l-3.005-3.24l-3.415-1.779
		l-0.516-3.205l-1.498-1.779l-11.494-0.63l-1.859-4.387l-4.248-3.266l-6.848-0.913l-6.595-3.608l-4.987,0.559l-2.481-3.171
		l-3.929-1.762l-7.159-0.493l-7.52-2.268l-3.262,0.746l0.415-4.899l-4.354-4.927l-2.231-10.236l-1.901-2.381l1.539-4.884
		l-0.996-2.237l1.644-0.788l1.584-4.6l2.811-1.959l-0.593-7.046l-2.709-3.869l-4.126-2.707l-1.279,0.593l-3.874-1.63l-4.523-5.977
		l2.727-4.895l0.137-2.623l-4.854-7.373l0.845-7.071l-0.578-2.83l-5.647-4.687l-3.643-1.36l-7.149,0.321v-0.894l-1.526-0.373
		l-7.375,0.716l-1.35-3.02l-2.544-1.697l0.896-2.131l-5.405,2.298l-1.344-0.448l-3.134,1.13l-4.22,3.13l-1.19,2.124l-3.362-1.99
		l-4.085,1.452l-3.879-1.231l-4.629,1.494l-2.844,2.762l-6.984-10.285l-2.129-0.901l-5.998,1.512l-3.15-0.834l-2.936,1.86
		l-0.792-1.33l-0.528-4.934l-1.56-1.579l2.995-5.737l-0.859-2.484l3.382-1.408l1.485-2.406l13.801-4.724l-0.473,0.91l3.529-3.271
		l6.342-3.393l5.147-5.882l1.356-3.47l-0.653-2.459l1.864,0.343l-2.27-0.977l-0.094-1.34l2.299-0.362l2.115,1.021l-0.367-2.147
		l-1.205,1.189l-2.983-0.129l-1.987-2.071l-6.139-2.449l5.483-2.353l-2.913-1.163l0.023-2.809l1.757,0.553l3.401-1.471l1.008-1.68
		l-0.257-2.698l4.329-0.221l5.645-5.645l8.494,0.506l2.926-1.763l0.405-2.818l2.023,0.766l3.389-0.628l-0.813,2.233l1.699,2.124
		l1.721,7.204l1.999,2.829l4.661,1.454l5.855-1.373l-7.978,8.831l-0.938,0.024l0.466,4.639l0.278-0.781l1.332,2.332l4.073,2.729
		l5.222-0.162l4.008-1.935l1.227,4.984l3.66,0.89l2.063-1.358l-4.201-2.663l-1.238-3.509l-4.087-3.359l-1.793-5.224l2.148-1.007
		l-0.06-3.235l1.305-0.29l-1.668-0.236l0.665-0.469l-0.828-0.997l-2.412-0.263l0.989-2.822l-2.815-3.789l0.226-4.774l-2.239-2.254
		l14.15,0.449l8.014-1.436l1.183-0.984l-0.535-1.284L587.85,13.931 M606.942,59.12l-2.045,0.603l1.627,0.385L606.942,59.12
		 M580.662,85.943l-4.015,1.607l0.162,1.104l-0.669-1.046l-1.97,1.368l0.82,1.703l-1.928-0.994l0.545-1.12l-1.605,0.126
		l-0.002,1.367l2.098,0.146l1.26,1.514l0.105-2.551l2.899-0.873l0.463-1.519l6.079,0.259L580.662,85.943 M587.194,95.886
		l-1.271,1.807l-1.49-0.808l-0.403,1.408l-0.276-0.781l-1.528,0.308l0.535,2.254l0.838-0.318l-0.713,0.015l-0.118-1.714l1.661,0.568
		l0.564-1.307l1.065,0.735L587.194,95.886"/>
	<path id="path3459" fill="#F7D3AA" stroke="#A08070" stroke-width="5.812" stroke-linecap="square" stroke-linejoin="bevel" d="
		M607.214,59.702l-2.318,0.006l2.139-0.714L607.214,59.702"/>
	<path id="path4547" fill="#F7D3AA" stroke="#A08070" stroke-width="5.812" stroke-linecap="square" stroke-linejoin="bevel" d="
		M482.772,379.039l-0.222,1.34l-0.553-0.604L482.772,379.039z"/>
	<path id="path4545" fill="#F7D3AA" stroke="#A08070" stroke-width="5.812" stroke-linecap="square" stroke-linejoin="bevel" d="
		M492.889,378.969l2.324,2.039l-1.575-0.146L492.889,378.969L492.889,378.969z"/>
	<path id="path3461" fill="#F7D3AA" stroke="#A08070" stroke-width="5.812" stroke-linecap="square" stroke-linejoin="bevel" d="
		M332.684,486.541h248.383l-0.489-23.999l1.873-9.456l3.601-3.372l-0.959-3.702l-3.232-5.271l-1.048-9.037l1.753-10.199l5.271-8.688
		l-3.639-3.385l-0.4-2.972l0.889-3.932l1.734-1.918l-0.788-7.734l1.728-6.668l-3.125,0.025l-4.547-4.465l0.781-3.111l-4.273-4.566
		l-0.845-8.325l1.485-13.102l-2.591-5.849l-4.604-1.963l-0.907,2.846l-2.769,1.371l-2.604-1.784l-3.251,0.622l1.244-4.045
		l-3.131-0.743l-0.838-2.928l-1.556,1.95l-1.963-0.56l-0.642-2.609l2.172-1.213l-0.12-1.099l-2.788,0.292l-1.937-1.169l-0.591,2.103
		l-1.836-0.286l0.877-3.188l2.33-3.182l-2.463-4.891l-2.643-1.479l2.547-1.994l-1.543-1.791l-1.95,1.74l-2.433-1.028l1.283-3.576
		l-3.334-2.591l-1.911,1.912l-1.004-0.21l-1.505-2.636l1.594-4.052l-4.051-0.031l-1.633-2.471l-2.038,0.819l-4.059-0.273
		l0.585-4.763l-2.313-1.34l-3.975,0.152l-2.636,2.433l-1.264-0.292l-1.759-8.136l-2.077-0.774l-2.362,4.229l-0.388,4.153
		l-2.61,0.787l-0.298,3.709l1.397,2.185l-2.064,4.268l-3.943,3.613l-1.861-2.223l-3.347,0.19l-3.188,1.918l-1.74,4.07l-1.753-0.889
		l-1.563,0.629l-0.33,1.651l0.972,1.193l-1.137,3.867l-0.927,1.245l-1.506-0.146l-1.365,2.775l0.268,1.467l1.606,0.509l-0.152,1.714
		l-2.972-0.222l-2.293,5.055l-2,1.416l0.069,3.62l-1.632,1.867l-2.846,0.787l-1.733,3.397l-5.722-0.33l-2.763,2.598l-2.337,0.013
		l-4.395,2.058l-0.35,1.048l-1.893,0.19l-0.241,2.032l-7.315,1.289l-2.477,0.997l-0.635,1.619l-3.785-2.406l-5.589,1.67l-7.043,0.33
		l-1.295-1.854l-3.716-0.673l-0.374-2.134l0.857-0.609l-0.921-0.839l-2.026,2.389l-6.864,3.479l-2.395,0.134l-1.035,2.063
		l-1.924,0.375l-2.109,2.267l-1.003-0.729l-2.19,2.73l-2.89-1.556l-4.084,4.318l-3.454,1.65l-0.73,3.277l-3.938,3.372l-2.852,10.288
		l0.826,3.162l-2.153,1.327l2.451,11.996l-4.813,4.338l0.121,2.547l-1.15,2.134l0.293,2.584l2.444,1.194l-0.577,6.599l3.08,6.039
		l1.797,1.372l3.658-0.547l-3.646,6.421l-4.313,1.835l-3.512-3.62l-2.02,3.449l-2.832,0.666l-2.788-3.188l-3.512,0.102l-1.34,4.191
		l-2.623,3.359l-2.064,0.47l-7.138-1.238l-3.937-3.34l-1.303,1.365l-10.561,1.346l-3.861-2.87l-2.141,9.271l-6.268-5.486
		l-2.87-0.235l2.4-5.176l-0.12-4.077l-2.313-2.692l-2.571-0.482l-0.063-2.261l-2.96-1.035l-2.953,0.412l-1.137-2.984l-6.286,2.667
		l-1.232,2.623l-3.957,2.705l-2.934,1.671l-2.21,0.076l-2.623,2.622l-1.765-0.285l-3.894,7.411l5.011-0.076l3.588,1.111l2.388,3.022
		l-0.724,3.563l0.819,0.508l1.34-0.158l2.273-3.392l2.985,0.21l4.807,4.014l0.21,2.381l-1.327,1.251l1.111,2.389l1.149,0.361
		l1.524-1.898l1.638,0.107l1.569,1.861l5.55,2.413l3.639,5.652l5.55,2.317l2.585,3.042l0.622,3.252l-1.949,3.207l-2.203,1.073
		L332.684,486.541L332.684,486.541z M476.296,377.318l1.098,2.73l-1.835-0.482L476.296,377.318z M473.552,377.737l0.736,1.409
		l-0.514,1.067l-0.464-0.571L473.552,377.737z M472.034,379.395l1.454,1.289l-1.296-0.197L472.034,379.395z M441.088,446.399
		l3.976,2.839l-0.337,1.238l0.896-0.025l0.241,1.238l-0.673-0.025l0.362,0.946l-0.946-0.241l1.784,0.92l-1.175,0.794l1.651,0.324
		h-0.692l0.35,1.232l-0.788-1.08l-0.692,0.896l-0.025-1.563l-1.695-0.514l0.928-0.35l-0.217-1.353l-0.584,0.305l0.395-2.045
		l-0.807,1.588l-0.07-1.061l-0.642,0.673l0.458-1.258l-1.842-1.632l3.117,0.959l-2.292-1.048l-0.375-1.124L441.088,446.399z
		 M555.506,482.471l0.934,1.2l-0.896,0.559L555.506,482.471z"/>
	<path id="path3463" fill="#F7D3AA" stroke="#A08070" stroke-width="5.812" stroke-linecap="square" stroke-linejoin="bevel" d="
		M408.048,36.289l-0.9,0.132l0.132-1.437L408.048,36.289"/>
	<path id="path4531" fill="#F7D3AA" stroke="#A08070" stroke-width="5.812" stroke-linecap="square" stroke-linejoin="bevel" d="
		M401.632,6.541H54.676l-2.553,2.382l-3.086,5.582l-7.9,6.706l-7.57,4.489l-6.02,10.523L24.898,35.5l-5.519,2.832l-0.927-2.045
		l-2.381-0.966l-1.778,2.229l-2.07-0.635l-2.286,1.149l-3.372-0.902l-0.8,1.34L3.611,38.91v75.597l13.432,9.36l17.534,10.142
		l0.584,1.664l-1.721,4.719l-0.794,6.617l0.616,2.35l1.62-0.196l1.899-3.125l3.664-0.972l1.099,1.423l1.137-0.076l2.579-0.591
		l1.696-1.778l1.867,0.114l12.606,14.581l5.792,3.442l0.051,2.451l3.886,1.645l1.861,3.271l6.109,1.55l5.017-0.959l1.886-1.416
		l3.036,0.196l5.792,4.242l6.884,1.512l1.378-0.438l1.842-3.568l1.86-1.238l13.768-4.846l1.931-7.538l3.366-2.197l6.509,5.214
		l7.729-0.832l0.133,3.492l2.146,1.715l4.135,0.286l3.683,1.499l2.744,0.222l3.677-3.651l10.561-0.14l4.89-8.173l3.302-0.179
		l3.836-3.238l1.01,0.502l2.692-4.325l1.594,3.118l2.706-3.626l4.616-2.121l-0.114-3.988l3.861-5.442l6.307-6.3l-0.337-3.048
		l-3.087-0.058l-1.104-3.544l0.185-2.477l2.209-0.704l2.356-3.404l14.683,4.521l5.239-0.172l-0.203-2.312l2.743-1.099l1.76,2.566
		l2.133-0.134l0.661,1.518l2.698,0.152l1.506,1.607l2.451,0.45l3.582-3.397l5.289-1.924l-0.653-5.106l-1.563-2.876l-1.987-1.239
		l0.514-9.513l3.245-3.722l6.497-1.149l0.254,2.75l1.53,0.305l1.715,2.661l0.527-0.673l0.679,3.981l3.678,2.172l3.771,6.757
		l4.726,2.661l2.394,3.41l-0.298,1.41l2.896,0.323l1.981,2.515l-0.254-5.55l1.739-1.969l-0.24-3.055l1.021-2.191l-1.867-5.963
		l1.201-4.02l4.058,0.317l4.128-1.486l4.643-3.619l-2.801-1.226l-2.77,0.361l-1.746-2.756l1.658-0.845l-0.527-1.88l0.939-2.458
		l1.461-0.641l0.863-1.925l1.829-0.361l0.489-4.478l1.588-2.063l-2.293-1.899l-4.262,1.086l-2.178-0.972l2.032-8.681l3.08-3.404
		l3.41-0.896l2.915-4.255l4.795-0.171l1.231,0.844l2.96-1.028l0.412,1.905l4.331-0.362l1.182,0.794l5.29-7.106l14.396-0.089
		l4.935-4.604l5.328-0.007l4.572,5.259l3.588,0.114l7.9-0.578l1.46-1.943l21.065-5.976l5.677,1.282l1.176,2.534l4.832-1.848
		l1.309-2.052l-0.813-2.56l1.181-1.048l0.171-2.597l-1.143-2.643l1.994-2.013l0.203-1.969l8.434-1.695l0.216,1.479l2.293-0.54
		l1.061,1.461l0.762-0.698l-0.203,1.2l1.619,0.298l-0.704,0.89l1.352-0.565l0.743,1.626l0.87-0.045l-3.283-6.382l-3.613-13.984
		l0.267-4.42L401.632,6.541L401.632,6.541z M16.369,37.094l1.264,0.12l0.724,2.242l-1.035,1.2l-2.166,0.317l-1.848-1.251
		L16.369,37.094z M28.137,91.708l2.438,1.017l0.298,5.791l-5.525,1.035l-4.629-3.289l-0.127-2.197L28.137,91.708z M64.684,155.678
		l0.559,2.02l-2.521,0.787l0.775-2.052L64.684,155.678z"/>
	<path id="path3467" fill="#F7D3AA" stroke="#A08070" stroke-width="5.812" stroke-linecap="square" stroke-linejoin="bevel" d="
		M325.816,473.65l-1.606-0.899l1.347-0.56L325.816,473.65"/>
	<path id="path3469" fill="#F7D3AA" stroke="#A08070" stroke-width="5.812" stroke-linecap="square" stroke-linejoin="bevel" d="
		M462.14,127.688l-1.857-4.054l1.181-1.582L462.14,127.688"/>
	<path id="path3471" fill="#F7D3AA" stroke="#A08070" stroke-width="5.812" stroke-linecap="square" stroke-linejoin="bevel" d="
		M473.521,380.252l-0.058-2.518l0.838,1.123L473.521,380.252"/>
	<path id="path3473" fill="#F7D3AA" stroke="#A08070" stroke-width="5.812" stroke-linecap="square" stroke-linejoin="bevel" d="
		M452.473,278.97l-1.905-2.909l1.313-0.609l-0.326-0.977l0.509,0.917l1.25-0.566l-0.686-0.468l0.437-2.094l0.715,1.404l-0.929-0.081
		l0.18,2.027l1.291,0.893l-2.683-0.71l1.593,2.251l-0.906-0.142L452.473,278.97"/>
	<path id="path3475" fill="#F7D3AA" stroke="#A08070" stroke-width="5.812" stroke-linecap="square" stroke-linejoin="bevel" d="
		M425.759,249.263l2.221-2.312l-0.463-0.871l3.875-1.944l-2.584,2.107l-0.504,2.211l-0.265-0.934L425.759,249.263"/>
	<path id="path3477" fill="#F7D3AA" stroke="#A08070" stroke-width="5.812" stroke-linecap="square" stroke-linejoin="bevel" d="
		M15.159,40.973l-1.864-1.663l3.077-2.219l1.259,0.122l0.538,2.628L15.159,40.973"/>
	<path id="path3481" fill="#FEFEE9" stroke="#646464" stroke-width="3.4872" stroke-linecap="square" stroke-linejoin="bevel" d="
		M208.059,225.492l-1.143,2.348l1.753,0.812l1.052,1.9l-0.577,2.089l0.961,0.801l0.683-0.85l0.286,1.467l0.081,1.953l-1.343,1.003
		l2.135,0.058l1.851,1.569l2.285-1.7l0.879,1.604l-2.117,2.266l-1.23-1.232l-5.428,2.118l-0.711,2.301l2.948,2.016l2.333,3.801
		l-4.828,0.79l-1.66,1.245l-3.402-1.265l0.816-1.09l-1.037-1.994l1.711-2.029l-3.141,2.097l-4.371-0.331l-0.379-1.071l-2.633,0.33
		l-1.661-1.891l-1.021-3.989l-3.58-0.929l-0.165-2.099l0.343-2.013l9.867-11.669l5.248-0.6L208.059,225.492"/>
	<path id="path3483" fill="#FEFEE9" stroke="#646464" stroke-width="3.4872" stroke-linecap="square" stroke-linejoin="bevel" d="
		M240.702,360.724l0.552-9.189l-4.381-7.894l-1.751-7.366l-2.027-3.489l5.137-1.332l3.453-2.066l4.721-0.024l3.688,1.942l4.32,0.77
		l-1.81,4.068l0.986,1.263l6.84-0.915l2.148-5.513l3.369-1.726l4.467-0.427l-2.631,9.943l-4.474,4.418l0.461,1.923l-0.979,1.226
		l0.92,4.34l-4.116,3.888l-2.641,8.071l-4.884,0.675l-2.681-1.513l-4.352-0.545l-1.671,0.932L240.702,360.724"/>
	<path id="path3485" fill="#FEFEE9" stroke="#646464" stroke-width="3.4872" stroke-linecap="square" stroke-linejoin="bevel" d="
		M452.641,195.124l-0.168,1.321l1.764,1.176l-1.627,2.848l-1.987,1.209l-2.188-0.93l-1.882,0.737l-0.122,0.975l4.131,0.161
		l0.124,4.147l-6.201,2.048l-1.737-0.696l-1.412,1.417l-0.993-0.734l-1.248,3.531l-1.941,1.582l-13.128-8.254l2.063-4.741
		l-3.899-1.792l1.939-5.902l7.339,5.473l-0.896-5.378l1.701-0.507l0.016-0.971l-1.697-2.173l1.581-2.884l1.549-0.027l0.407,1.156
		l2.139-0.255l2.77,3l3.151,0.962l2.676-0.7l3.252,2.217l1.964-2.704l2.572,1.676l-1.145,1.199L452.641,195.124"/>
	<path id="path3487" fill="#FEFEE9" stroke="#646464" stroke-width="3.4872" stroke-linecap="square" stroke-linejoin="bevel" d="
		M448.576,200.947l1.354,0.717l-2.361-0.289L448.576,200.947"/>
	<path id="path3489" fill="#FEFEE9" stroke="#646464" stroke-width="3.4872" stroke-linecap="square" stroke-linejoin="bevel" d="
		M382.999,266.874l0.904,4.711l-0.809,1.973l-2.371,2.985l-2.672,1.366l-1.965-0.509l-0.149-1.822l1.159-1.569l-0.506-1.27
		l-3.135,1.311l-1.192-3.792l-3.226,0.859l-1.465,1.821l-4.938,0.502l0.41-6.53l-1.409-2.381l-0.199-2.888l3.433-5.921l-5.033-7.903
		l0.859-0.554l-0.454-2.331l6.25-1.159l0.805,2.583l5.085,3.396l2.671,0.459l9.12-1.814l4.949,3.242l-3.948,6.427l-4.236,2.731
		l0.053,2.191L382.999,266.874"/>
	<path id="path3491" fill="#FEFEE9" stroke="#646464" stroke-width="3.4872" stroke-linecap="square" stroke-linejoin="bevel" d="
		M385.182,339.385l-1.937,2.141l1.507,1.397l-0.484,1.476l1.311,4.601l3.252,4.505l-2.026,0.065l-1.576,2.434l-1.661,0.163
		l-7.111,5.906l-3.664,0.028l0.931,3.502l-1.258,2.481l0.374,2.264l-5.811,11.155l-3.103,0.682l-1.488,1.478l-1.938-4.015
		l-2.271,0.479l-3.161,4.426l0.523,2.359l-2.326,0.125l-2.133,1.536l-5.002,1.327l-4.256-0.813l-1.003-3.691l-3.148-2.537
		l1.126-3.583l-1.241-4.188l-3.907-0.766l-1.309-3.418l-2.102-0.876l-4.87-4.884l-1.267-5.518l-1.075,1.341l-7.62,0.929
		l-6.759,4.921l-10.238,0.412l-1.9,2.489l0.575-4.172l-1.401-1.252l0.358-4.956l3.554-1.409l-0.101-1.908l7.627-1.807l-0.007-12.439
		l4.024-0.036l2.936-1.19l4.673-5.129l2.287-0.562l6.948-5.253l0.65-1.877l2.191-1.047l0.115-5.292l4.696-1.358l1.164-1.857
		l3.47-1.202l3.271,3.914l4.671-1.507l5.791-0.146l1.49-1.699l2.873,0.723l4.802-1.868l6.031-4.853l2.026,0.072l0.079-2.962
		l3.412-3.086l-0.017-1.892l5.415-2.299l1.041-1.582l2.496,2.446l2.023-0.283l1.61-1.505l2.916,1.118l4.121-1.956l3.598-0.204
		l2.755,1.149l1.984-1.005l4.793,3.899l-0.079,6.113l5.129-1.274l4.097,0.95l-0.82,1.86l-8.11,5.608l-1.125,8.007l-4.839-0.293
		l-2.524,3.479l-4.116,3.189l-5.348,0.553l-1.416,4.322L385.182,339.385"/>
	<path id="path3493" fill="#FEFEE9" stroke="#646464" stroke-width="3.4872" stroke-linecap="square" stroke-linejoin="bevel" d="
		M353.582,135.473l4.327-3.52h1.66l2.494,0.831l12.101,9.967l6.408,0.712l4.627-3.679l1.898-2.966l5.34-2.018l9.492-1.305
		l21.576-10.075l2.203,0.75l0.603-1.111l0.583-2.958l-1.02-4.589l-3.655-5.41l-6.133-0.585l-13.721,2.563l-9.486-5.329
		l-7.935-11.479l-10.34-10.853l-10.586-13.331l-4.892-8.068l-1.939-6.163l-1.13-6.56l20.073-5.983l5.682,1.279l0.945,2.548
		l2.551-0.678l2.508-1.18l1.311-2.052l-0.815-2.563l1.183-1.044l0.176-2.601l-1.157-2.567l2.004-2.087l0.021-1.859l7.299-1.961
		l0.706,0.864l0.76-0.603l0.279,1.463l2.083-0.626l1.058,1.459l0.764-0.697l-0.204,1.196l1.622,0.302l-0.705,0.89l1.515-0.46
		l0.581,1.519l0.955,0.06l-0.013,1.618l1.253-0.017l2.234,2.632l2.873,9.081l-1.706,3.254l-4.464,2.229l-2.957,4.815l-0.449,1.281
		l1.363,1.195l-0.852,4.817l1.771,0.103l1.277,2.099l3.173-0.827l2.488-8.101l1.704-0.634l4.709,2.208l6.619,6.188l-0.142,1.748
		l-2.037,0.537l-2.314,2.807l1.066,1.544l2.191,0.32l3.016-1.471l3.785,3.673l2.165,0.673l15.871,0.747l6,5.693l1.87,5.085
		l1.687,6.667l-0.148,6.347l-7.719,7.263l-1.394-0.095l-5.825,4.481l-5.369,9.676l-4.008-1.971l-2.952,0.086l0.4,1.474l1.088-0.546
		l0.351,1.533l3.081,2.019l0.362,1.277l2.593,0.944l3.782-1.21l6.396-5.121l1.668-2.452l-0.674-3.345l1-2.06l6.812-0.824
		l2.226,1.365l-1.638,9.245l-4.123,1.411l-1.5,2.153l-0.108,2.58l1.565,3.632l-3.324,0.836l-2.697,2.283l-0.394,1.268l1.574,4.204
		l-3.221,1.23l-4.141,7.118l-0.04,2.406l2.373,1.792l-0.146,4.192l1.037,2.834l-0.4,0.9l-3.421,0.853l-1.706,4.21l0.336,3.502
		l0.986,0.734l4.239-2.504l2.518,0.436l0.955,2.729l-1.248,1.443l-0.854,4.353l2.243,0.229l-1.43,1.686l-2.17-0.032l1.042,2.681
		l-0.804,3.901l1.313,1.587l1.627-0.871l0.644,1.753l1.142-2.086l1.964-0.404l-0.257,1.693l1.601,0.24l0.051,1.523l-2.04-0.682
		l-0.795,1.769l1.493,0.085l-0.425,1.388l-2.844-1.591l-1.964,2.704l-3.252-2.218l-2.676,0.701l-3.151-0.962l-2.77-3l-4.627-0.563
		l-1.049,2.572l1.697,2.173l-0.016,0.971l-1.701,0.507l0.896,5.378l-7.339-5.473l-1.846,6.355l3.371,0.896l0.375,1.098l-1.253,3.356
		l-3.595,1.907l-0.932,3.385l-1.233-0.133l-0.441-1.917l-2.257,0.299l-3.425-1.169l-2.694,1.698l-2.004,2.867l-2.079,0.112
		l-2.694-2.241l-6.785-2.852l-6.752,1.362l-4.38-2.99l-4.685,1.744l-2.335-0.188l-1.536,1.178l-2.671-1.618l-5.285,4.027
		l-3.604-0.411l0.996-0.54l-0.802-0.441l1.732,0.936l1.788-0.402l-2.366-0.39l-1.361-3.382l4.366-7.512l0.979-7.146l2.359-4.557
		l-3.101-3.921l-2.368-0.621l1.036-3.097l5.271-8.409l11.527-10.782l-8.259-3.597l-3.659,1.377l-1.985-0.507l-2.225-2.934
		l-6.319-4.221l-3.145-3.671L353.582,135.473"/>
	<path id="path3495" fill="#FEFEE9" stroke="#646464" stroke-width="3.4872" stroke-linecap="square" stroke-linejoin="bevel" d="
		M441.366,120.881l-0.763-0.269l1.771-3.376L441.366,120.881"/>
	<path id="path3497" fill="#FEFEE9" stroke="#646464" stroke-width="3.4872" stroke-linecap="square" stroke-linejoin="bevel" d="
		M464.114,155.956l1.836-2.205l-1.988-7.294l0.653-5.689l-2.52-20.65l3.806-1.375l5.117,0.176l4.613,2.144l1.624,3.594l-3.107,2.605
		l0.986,3.243l-3.523,11.324l-2.643,4.181l-0.229,7.342l-1.736,4.311l1.263,6.377l-2.193,3.052L464.114,155.956"/>
	<path id="path3499" fill="#FEFEE9" stroke="#646464" stroke-width="3.4872" stroke-linecap="square" stroke-linejoin="bevel" d="
		M462.14,127.688l-1.857-4.054l1.181-1.582L462.14,127.688"/>
	<path id="path3501" fill="#FEFEE9" stroke="#646464" stroke-width="3.4872" stroke-linecap="square" stroke-linejoin="bevel" d="
		M450.68,141.6l0.238-1.946l-1.689-2.747l3.096-2.963l3.348-1.079l-1.523-5.143l0.837-2.363l4.507-0.738l3.754,9.093l0.802,7.616
		l-3.636,3.868l4.051,9.232l-1.07,3.649l2.232,11.146l-0.382,3.464l-4.311,5.749l-2.397-0.297l0.785-4.102l-4.222-3.421
		l-2.028,1.332l-5.342-3.879l-3.843,1.009l-1.646,1.5l-0.815-0.432l-0.214-3.772l1.233-2.827l4.184-2.472l-0.8-6.951l-2.681-2.509
		l0.209-1.333l4.355-7.642L450.68,141.6"/>
	<path id="path3503" fill="#FEFEE9" stroke="#646464" stroke-width="3.4872" stroke-linecap="square" stroke-linejoin="bevel" d="
		M464.841,154.428l-1.02-0.67l-3.283-8.656l2.933-1.813l0.165,5.556l1.987,4.823L464.841,154.428"/>
	<path id="path3505" fill="#FEFEE9" stroke="#646464" stroke-width="3.4872" stroke-linecap="square" stroke-linejoin="bevel" d="
		M460.103,180.077l-2.275,7.878l-4.087,4.862l-0.991-0.66l0.687-1.471l-1.373,0.184l-0.178-1.324l0.957-0.765l1.896,0.686
		l0.02-1.479l-1.73-0.582l0.379-1.376l1.184,1.316l0.811-0.535l-1.217-3.047l0.948-1.222l1.344,0.893l1.021-1.655l-0.668-1.592
		l2.142-0.18l-0.233-1.494l1.1-0.003L460.103,180.077"/>
	<path id="path3507" fill="#FEFEE9" stroke="#646464" stroke-width="3.4872" stroke-linecap="square" stroke-linejoin="bevel" d="
		M456.578,197.221l-2.069,0.215l1.299-3.361l-1.954-1.196l4.095-4.596l0.142,3.458L456.578,197.221"/>
	<path id="path3509" fill="#FEFEE9" stroke="#646464" stroke-width="3.4872" stroke-linecap="square" stroke-linejoin="bevel" d="
		M454.237,197.621l-1.764-1.176l-0.967-3.135l0.804-1.162l3.31,1.953L454.237,197.621"/>
	<path id="path3511" fill="#FEFEE9" stroke="#646464" stroke-width="3.4872" stroke-linecap="square" stroke-linejoin="bevel" d="
		M454.42,199.358l0.389-1.388l1.452-0.14L454.42,199.358"/>
	<path id="path3513" fill="#FEFEE9" stroke="#646464" stroke-width="3.4872" stroke-linecap="square" stroke-linejoin="bevel" d="
		M541.559,129.713l-7.347,3.019l-0.146,1.402l-1.749-0.576l-1.258,1.125l0.271,1.092l-5.771-2.001l-3.357,1.109l-3.007-1.507
		l-2.131,0.991l-1.354-1.016l-2.028,0.372l0.081,1.553l-3.598,3.604l0.687,1.316l-1.571,1.364l-1.73,0.046l-3.248,4.949
		l-1.591,0.716l-0.766-1.422l-1.464-0.268l-1.915,2.102l-1.956,3.696l1.361,2.383l-0.586,3.141l-0.713,0.844l-2.578-0.342
		l-0.664,1.676l2.681,1.149l2.431,3.554l0.113,4.229l-1.236,1.739l1.556,1.84l4.706,1.249l0.197,4.074l-0.965,2.538l3.744,2.283
		l0.017,3.249l-2.69,0.586l0.194,3.307l1.521,2.048l1.867-1.944l1.79,2.847l0.156,3.664l-1.404,0.516l-0.185,2.467l2.165,2.678
		l-1.543,1.93l-1.424-2.356l-2.656,0.778l-0.668,2.578l-2.938,2.25l-1.807,10.417l-3.02,1.362l-6.799-20.743l-2.763-0.699
		l-4.349,7.176l-0.048,13.151l-2.964,6.254l-9.509-0.145l-5.437,4.224l-0.646-2.335l-4.029-4.063l-5.628-3.089l-0.932-6.178
		l1.477-1.523l-0.932-1.431l-2.587-0.754l-0.331-5.337l3.492-1.68l4.598-5.975l-0.091-5.986l1.917-7.813l4.356-5.2l1.411-3.328
		l0.206-5.199l2.17-3.237l-1.183-6.014l1.528-3.106l0.688-9.557l2.53-3.204l3.703-10.895l-0.96-4.375l2.436-0.786l2.901-3.527
		l4.438,0.883l0.686,1.894l6.379-4.369l6.314-2.826l11.033,6.109l14.489,2.157l7.894-0.609l11.817,2.49L541.559,129.713"/>
	<path id="path3515" fill="#FEFEE9" stroke="#646464" stroke-width="3.4872" stroke-linecap="square" stroke-linejoin="bevel" d="
		M452.908,172.037l2.093-1.205l4.145,3.207l-0.838,3.763l0.771,1.899l-2.256,0.383l0.595,1.804l-0.946,1.477l-1.396-0.877
		l-0.897,1.19l1.03,3.369l-1.786-1.1l-2.136,0.39l-1.129,2.099l-0.652-1.79l-1.531,0.918l-1.311-1.585l0.886-3.647l-1.034-2.82
		l2.104,0.063l1.508-1.646l-2.208-0.499l0.842-4.198l1.19-1.394l-0.458-1.808L452.908,172.037"/>
	<path id="path3517" fill="#FEFEE9" stroke="#646464" stroke-width="3.4872" stroke-linecap="square" stroke-linejoin="bevel" d="
		M236.383,310.765l-1.67,4.109l0.769,8.34l0.77,0.468l-0.496,4.673l-2.66,4.431l-1.383,0.729l-3.108-1.813l-6.837,1.702
		l-8.771-0.094l-2.912-2.436l-0.731-1.959l-2.802-1.821l-1.879,0.427l-1.332,1.867l-2.231-0.343l-0.98,0.802l-2.04-1.985
		l-3.685,0.523l0.054-1.831l-4.35-2.904l-0.812-3.297l-2.823-0.785l-1.146-2.578l-5.251-3.672l-1.708-0.096l-2.434-4.604
		l-6.665-3.089l2.964-1.013l1.8-2.724l10.532-3.069l-0.155-3.271l1.978-7.253l1.789-2.94l3.889-1.963l1.355-2.139l-1.78-3.203
		l2.105-3.994l-0.124-2.863l4.748,0.888l1.523,1.395l3.327,3.917l0.684,3.854l1.482,0.893l1.348-2.875l3.43-3.144l0.771-4.231
		l4.145-1.111l1.577-1.574l-0.647-2.446l1.489-3.417l-1.122-1.98l1.228-2.152l-0.975-2.967l7.105,1.819l8.186,7.767l8.119-3.02
		l2.176,4.268l3.887,0.705l-0.217,2.376l-4.432,6.492l1.348,6.953l-4.077-0.161l0.296,2.103l-1.752,1.419l0.511,3.148l-1.149,1.14
		l-0.436,7.903l3.289,6.346L236.383,310.765"/>
	<path id="path3519" fill="#FEFEE9" stroke="#646464" stroke-width="3.4872" stroke-linecap="square" stroke-linejoin="bevel" d="
		M292.78,335.23l-0.636,3.14l-4.121,7.723l-1.138-1.291l-4.156-0.425l-2.069,2.789l-3.679-3.766l-1.638,1.665l-2.184,6.346
		l-2.402,1.063l-6.938,6.432l-6.864,3.728l2.64-8.071l4.117-3.888l-0.92-4.34l0.979-1.226l-0.461-1.923l4.474-4.419l2.631-9.942
		l-4.467,0.427l-3.369,1.726l-2.148,5.513l-6.84,0.915l-0.986-1.263l1.81-4.068l-4.32-0.77l-3.688-1.942l-4.721,0.024l-3.453,2.066
		l-5.137,1.332l2.66-4.431l0.49-4.589l-0.764-0.552l-0.769-8.34l4.753-9.226l-3.273-6.591l0.436-7.903l1.149-1.14l-0.512-3.149
		l1.753-1.418l-0.296-2.103l4.077,0.161l-1.348-6.953l4.432-6.492l0.217-2.376l11.776,0.991l5.001,2.738l7.431-0.175l3.262-2.513
		l6.398-0.166l0.927,0.766l0.079,4.368l2.565,6.051l2.356-0.617l0.159-5.765l3.943,0.166l7.351-5.028l11.415,7.726l6.983,1.653
		l-1.317,0.586l0.434,1.291l-1.11,0.874l1.382,0.244L315.107,284l-3.523,1.928l0.909,1.762l2.377,0.012l-0.619,1.365l0.791,2.04
		l-2.574-0.441l-1.686,0.967l1.396,1.013l0.934,3.744l1.409,1.238l-4.867,3.278l0.716,3.067l-2.888,3.614l0.84,2.95l-1.354,3.682
		l0.108,3.858l-2.638,1.832l-1.699-0.535l-4.872,3.955l1.572,3.026l-3.056,2.868l-2.431,0.086L292.78,335.23"/>
	<path id="path3521" fill="#FEFEE9" stroke="#646464" stroke-width="3.4872" stroke-linecap="square" stroke-linejoin="bevel" d="
		M233.094,332.785l2.027,3.489l2.143,8.261l3.506,5.328l0.473,8.307l-0.541,2.554l-3.352,0.643l-2.585,1.806l-2.262-0.979
		l-2.704,0.537l-1.77,1.551l-1.355-0.732l-0.378-2.225l-2.036-2.656l1.545-0.999l-0.329-2.022l-4.312-3.519l-3.369-1.068
		l-3.908-4.612l-6.382-3.433l0.305-2.575l-1.008-1.771l2.114-1.797l3.511,0.82l5.979-4.889l3.36,0.603l6.837-1.701l3.108,1.812
		L233.094,332.785"/>
	<path id="path3523" fill="#FEFEE9" stroke="#646464" stroke-width="3.4872" stroke-linecap="square" stroke-linejoin="bevel" d="
		M296.251,359.229l-0.517,5.066l1.164,0.496l0.118,3.14l-3.357,8.87l-1.842-1.001l-3.669,0.087l-1.073,1.884l-1.971-0.4
		l-1.746,1.229l-1.976-1.91l-4.279-1.111l-1.313-2.557l-9.641-2.121l-6.761-3.067l-2.962-4.773l7.393-4.152l6.938-6.432l2.402-1.063
		l2.185-6.346l1.637-1.665l3.679,3.766l2.069-2.789l4.156,0.425l1.138,1.291l4.709-9.323l0.54-6.332l0.818-1.255l2.294,0.041
		l3.056-2.868l-1.572-3.026l4.872-3.955l1.699,0.535l2.587-1.719l-0.058-3.972l1.354-3.682l-0.84-2.95l2.888-3.614l-0.716-3.067
		l4.862-3.259l-1.404-1.258l-0.933-3.744l-1.397-1.013l1.686-0.967l2.574,0.441l-0.791-2.04l0.619-1.365l-2.377-0.012l-0.909-1.762
		l3.523-1.928l0.028-3.125l-1.382-0.244l1.882-2.873l-6.871-1.531l-11.415-7.726l-7.351,5.028l-3.943-0.166l1.354-2.585
		l-1.152-4.596l2.623-1.604l1.39-2.834l2.669,0.132l2.299-3.958l1.976-8.274l-1.332-1.546l0.156-3.151l-1.605-4.622l3.479-4.108
		l2.03-0.841l4.09,0.988l0.657-1.176l3.831-1.488l0.852,2.507l1.688,0.749l4.925-1.715l0.975-4.012l-0.773-4.363l2.619-3.718
		l-0.711-2.095l7.347-6.808l5.561-1.344l0.235-2.576l1.471-0.893l0.818-2.861l1.738,0.197l3.117-2.354l8.977,3.211l5.63-3.298
		l7.946,0.614l1.111,0.547l-0.598,1.764l1.263,2.536l4.954,0.833l4.449-1.946l2.076-2.276l2.76,1.596l1.536-1.178l2.335,0.188
		l4.685-1.744l4.38,2.99l6.752-1.362l10.637,5.183l5.62-4.768l3.425,1.169l2.256-0.299l0.471,1.946l1.526-0.006l0.579-3.225
		l1.596-1.345l6.489,2.955l1.477,1.668l-3.067,4.376l-14.89,8.399l0.777,6.785l2.481,0.507l1.095,3.912l-4.36,4.58l-0.233,9.469
		l-4.685,1.454l-0.557,2.784l-6.365,3.845l-0.888,1.776l0.563,4.396l-2.352,4.207l-10.939,4.688l-1.853,1.833l0.036,2.328
		l1.685,2.458l4.411-0.807l0.578,1.747l8.141-3.957l2.23,2.582l-0.279,2.025l1.521,1.874l-1.588,3.912l-9.963,11.371l0.955,3.711
		l-2.913,1.138l-2.952-1.114l-1.574,1.501l-2.107,0.283l-2.645-2.331l-0.809,1.467l-5.415,2.299l0.017,1.892l-3.412,3.086
		l-0.104,2.983l-2.002-0.094l-6.004,4.841l-4.829,1.88l-2.873-0.723l-1.49,1.699l-5.791,0.146l-4.671,1.507l-3.285-3.917
		l-3.456,1.205l-1.164,1.857l-4.646,1.294l-0.165,5.356l-2.191,1.047l-0.65,1.876l-6.948,5.254l-2.287,0.562l-4.673,5.129
		l-7.145,1.479l0.191,12.188l-7.627,1.807l0.101,1.908L296.251,359.229 M314.961,294.663l0.979,0.123l-0.612-0.757L314.961,294.663
		 M381.219,263.53l-0.283-2.733l4.236-2.731l3.948-6.427l-4.949-3.243l-9.12,1.815l-2.671-0.459l-5.085-3.396l-0.805-2.583
		l-6.25,1.159l0.454,2.331l-0.859,0.554l5.033,7.903l-3.433,5.921l0.199,2.888l1.409,2.38l-0.41,6.531l4.938-0.502l1.465-1.821
		l3.226-0.859l1.192,3.792l3.135-1.311l0.506,1.27l-1.158,1.569l0.148,1.822l1.965,0.509l2.672-1.366l3.18-4.958l-0.051-2.331
		L381.219,263.53"/>
	<path id="path3525" fill="#FEFEE9" stroke="#646464" stroke-width="3.4872" stroke-linecap="square" stroke-linejoin="bevel" d="
		M420.81,124.58l-18.881,8.916l-9.492,1.305l-5.34,2.018l-1.898,2.966l-4.627,3.679l-2.847,0.237l-6.29-2.492l-9.372-8.424
		l-4.154-0.831l-3.56,2.61l-0.768,0.909l6.271,10.706l3.145,3.671l6.319,4.221l2.225,2.934l1.984,0.507l3.66-1.377l8.259,3.597
		l-11.527,10.782l-5.271,8.409l-1.036,3.097l2.368,0.621l3.101,3.921l-2.359,4.557l-0.979,7.146l-4.049,6.462l0.275,3.559
		l-1.176,0.006l0.963-0.795l-1.434,1.208l-0.101-1.077l-1.113,0.313l1.126,1.237l0.969-0.646l0.248,1.334l-2.828-0.165l-1.176-2.444
		l0.418-1.993l-5.264-1.169l-5.123,0.755l-3.68,2.743l-9.418-3.174l-3.117,2.354l-1.719-0.212l-0.838,2.876l-1.471,0.893
		L331,212.902l-5.561,1.344l-7.347,6.808l0.711,2.095l-2.619,3.718l0.773,4.364l-0.797,3.694l-4.928,2.044l-1.862-0.762
		l-0.688-2.507l-3.993,1.488l-0.771,1.201l-3.977-1.014l-1.935-3.905l1.487-1.643l-0.904-2.229l-3.713-1.081l-1.724-2.407
		l-0.132-3.088l-2.393,0.325l0.845-2.593l-1.872-2.18l-3.211,0.008l-3.547-2.802l-1.695-5.837l-1.696,0.332l-1.74-4.432
		l-5.669-5.957l-2.395-5.883l-0.168-6.023l-1.895-1.597l-7.466-2.8l-4.556-5.122l-2.157-6.651l2.568-2.483l4.145-0.844l3.099-2.366
		l1.563-4.329l-0.276-10.233l-3.581-3.954l-5.042-2.312l-3.228-3.623l-0.27-3.377l-3.094,1.516l-1.034,4.531l-2.374,1.144
		l-0.048,1.386l-2.29-0.679l-2.363-3.282l-2.95,0.613l-0.893-5.289l-2.661-1.164l-2.301,1.106l-6.002-3.182l-2.347-3.419l0.45-1.64
		l-4.521-0.162l-1.703-8.184l3.79,0.405l-0.206-2.308l2.749-1.104l1.756,2.568l2.134-0.131l0.662,1.516l2.7,0.154l1.501,1.603
		l2.456,0.454l3.575-3.396l5.295-1.93l-0.654-5.102l-1.566-2.876l-1.951-0.99l0.311-9.153l3.418-4.334l3.691-0.028l2.179-1.367
		l0.881,2.995l1.528,0.305l1.714,2.662l0.528-0.671l0.677,3.981l3.679,2.17l3.771,6.758l4.723,2.66l2.4,3.414l-0.301,1.405
		l2.896,0.327l1.979,2.515l-0.25-5.553l1.74-1.965l-0.247-3.06l1.022-2.187l-1.867-5.963l1.205-4.022l4.053,0.316l4.128-1.486
		L289,94.553l-2.803-1.229l-2.768,0.365l-1.745-2.758l1.659-0.845l-0.533-1.876l0.943-2.459l1.462-0.642l0.863-1.928l1.829-0.36
		l0.487-4.474l1.589-2.065l-2.292-1.901l-4.263,1.091l-2.179-0.973l2.03-8.685l3.079-3.404l3.415-0.896l2.911-4.251l4.795-0.173
		l1.231,0.847l2.962-1.032l0.412,1.904l4.332-0.357l1.179,0.793l5.29-7.105l14.4-0.09l4.672-4.523l5.59-0.091l4.574,5.258
		l10.851-0.299l3.084-2.098l3.069,12.723l4.892,8.068l10.587,13.331l10.339,10.853l7.935,11.479l2.495,1.993l6.991,3.336
		l13.721-2.563l7.395,1.353l2.394,4.643l0.909,5.988l-1.075,2.67l-1.574-0.859L420.81,124.58"/>
	<path id="path3527" fill="#FEFEE9" stroke="#646464" stroke-width="3.4872" stroke-linecap="square" stroke-linejoin="bevel" d="
		M272.796,269.221l-2.486,2.019l-8.281,0.072l-4.151-2.636l-15.214-1.377l-2.625-4.587l-8.119,3.02l-8.186-7.767l-7.105-1.819
		l0.995-2.187l-1.259-3.194l-3.166-0.71l-2.774-4.041l-3.172-2.558l2.819-2.934l3.557-0.945l1.235,1.224l0.685-1.648l1.227-0.165
		l-0.031-1.499l-0.88-0.57l-2.101,1.724l-1.815-1.569l-2.135-0.058l1.343-1.003l-0.081-1.953l-0.286-1.467l-0.683,0.85l-0.961-0.801
		l0.577-2.089l-1.052-1.9l-1.753-0.812l1.143-2.348l-5.194-2.185l-5.248,0.6l-2.478,2.071l-7.39,9.598l-0.178,4.111l-2.392,4.214
		l-8.709,0.849l-4.942,3.859l-0.419-1.235l-5.326-1.502l-3.353-2.874l-0.457-1.865l-3.733-0.601l-4.261-3.326l-1.057-2.934
		l2.063-3.148l-2.324-1.291l0.8-5.066l-0.7-6.967l-3.065-4.509l-2.106-0.423l-1.815-2.049l-4.743-0.257l-0.757-1.167l-9.109,3.433
		l-2.501-3.03l-5.542-1.308l-2.399-5.649l-1.421-7.912l-11.673-6.767l-0.416-5.279l-2.018-2.615l-2.665-0.418l-2.416-2.027
		l-0.81-3.613l3.101,0.434l4.417-5.216l13.574-4.704l2.124-7.682l3.367-2.194l6.505,5.213l7.729-0.832l0.135,3.491l2.144,1.717
		l4.137,0.285l3.682,1.5l2.745,0.219l3.68-3.646l10.557-0.144l4.89-8.17l3.305-0.182l3.837-3.234l1.009,0.499l2.691-4.326
		l1.595,3.117l2.705-3.625l4.615-2.123l-0.113-3.988l3.859-5.438l6.308-6.305l-0.335-3.047l-3.09-0.054l-1.1-3.548l0.178-2.474
		l2.211-0.704l2.471-3.442l14.076,4.495l1.943-0.514l2.002,8.483l1.855-0.755l2.367,0.616l-0.45,1.64l2.347,3.419l6.002,3.182
		l2.301-1.106l2.661,1.164l0.893,5.29l2.95-0.614l2.362,3.282l2.409,0.578l-0.07-1.285l2.374-1.144l1.034-4.531l3.262-1.447
		l0.101,3.309l3.365,3.742l4.905,2.192l4.066,5.145l-0.209,9.043l-1.563,4.329l-3.099,2.366l-4.146,0.844l-2.567,2.483l2.157,6.651
		l4.556,5.122l7.466,2.8l1.895,1.597l0.088,5.617l1.854,5.2l6.29,7.046l1.74,4.432l1.696-0.331l1.434,5.532l3.809,3.105l2.191-0.553
		l2.553,1.965l-0.506,3.353l2.393-0.325l0.132,3.088l1.724,2.407l3.573,0.967l1.044,2.229l-1.488,1.757l2.048,3.712l-2.066,0.959
		l-3.557,4.184l2.64,11.205l-1.834,6.389l-2.248,3.907l-2.72-0.081l-1.39,2.834l-2.623,1.604l1.152,4.596l-1.375,1.529l-0.286,7.027
		l-2.901,0.129l-2.252-10.55l-4.619-0.473L272.796,269.221"/>
	
		<path id="path3529" fill="#B0000F" fill-opacity="0.9412" stroke="#646464" stroke-width="3.4872" stroke-linecap="square" stroke-linejoin="bevel" d="
		M444.95,208.602l0.201,3.316l2.165,1.823l0.201,2.075l-2.253,4.565l2.654,0.325l0.506,1.398l-1.612,1.248l0.876,0.466l-0.423,1.341
		l-1.214,0.519l0.962,0.677l-1.032,1.202l0.826,3.601l-2.237,4.165l0.192,1.306l1.714,1.043l-0.399,4.104l1.933,1.338l0.245,2.474
		l-1.399,1.269l-1.011,8.404l2.367,4.709l2.721,1.62l-0.758,2.938l-0.896-1.838l-6.058-0.492l-5.342,1.212l-3.881,3.545
		l-3.377,0.379l-2.522,7.011l-3.077,1.62l-0.607,8.556l-2.498,4.605l0.324,6.698l-5.537,9.072l-0.053,4.342l-4.097-0.95
		l-5.129,1.274l0.269-5.316l-1.121-1.848l-3.861-2.85l-1.984,1.006l-2.755-1.149l-4.806,1.022l-1.031-3.026l1.816-3.542l8.223-8.514
		l1.604-3.835l-1.536-1.951l0.278-2.025l-2.784-2.71l-6.579,3.934l-1.096,0.113l-0.49-1.709l-4.311,0.883l-1.785-2.534l-0.036-2.328
		l1.853-1.833l10.939-4.688l2.352-4.207l-0.563-4.396l0.888-1.776l6.365-3.845l0.557-2.784l4.685-1.454l0.233-9.469l4.36-4.58
		l-1.095-3.912l-2.481-0.507l-0.777-6.785l14.486-8.07l3.471-4.705l6.441,3.747l1.941-1.582l1.248-3.531l0.993,0.734l1.412-1.417
		L444.95,208.602 M431.88,236.553l0.362,0.567l0.242-1.46L431.88,236.553 M423.484,240.259l-0.929,0.953l1.395-1.033l0.744,1.155
		l0.707-0.404l-0.283-0.953L423.484,240.259 M430.968,244.318l-3.451,1.762l0.463,0.871l-2.221,2.312l2.28-1.742l0.265,0.934
		l0.283-1.887l-0.102,0.871L430.968,244.318"/>
	<path id="path3531" fill="#FEFEE9" stroke="#646464" stroke-width="3.4872" stroke-linecap="square" stroke-linejoin="bevel" d="
		M445.893,291.464l-7.155-1.029l-5.021-2.936l-4.25,0.978l-1.467-1.707l-4.946,0.357l1.663-4.128l0.305-7.036l3.077-1.62
		l2.522-7.011l3.377-0.379l3.881-3.545l5.342-1.212l6.058,0.492l0.896,1.838l0.758-2.938l-2.721-1.62l-2.367-4.709l1.011-8.404
		l1.399-1.269l-0.245-2.474l-1.933-1.338l0.399-4.104l-1.714-1.043l-0.192-1.306l2.237-4.165l-0.826-3.601l1.032-1.202l-0.962-0.677
		l1.214-0.519l0.423-1.341l-0.876-0.466l1.612-1.248l-0.506-1.398l-2.654-0.325l2.253-4.565l-0.201-2.075l-2.165-1.823l-0.201-3.316
		l5.735-1.833l0.821,1.934l2.025,0.053l0.886,1.444l-1.472,1.29l0.92,6.354l5.627,3.089l4.03,4.063l0.646,2.335l5.436-4.224
		l9.164,0.277l3.31-6.387l0.048-13.151l4.349-7.176l1.034-0.231l1.729,0.931l0.807,1.912l4.363,11.978l1.385,6.663l3.098-0.951
		l1.987-10.667l2.923-2.221l0.934-2.753l2.391-0.604l1.424,2.356l1.543-1.93l-2.165-2.678l0.185-2.466l1.404-0.517l-0.156-3.664
		l-1.79-2.847l-1.867,1.944l-1.521-2.048l-0.194-3.307l2.689-0.586l-0.017-3.249l-3.744-2.283l0.965-2.538l-0.196-4.074
		l-4.707-1.249l-1.555-1.84l1.236-1.739l-0.113-4.229l-2.431-3.554l-2.681-1.149l0.664-1.676l2.578,0.342l0.713-0.844l0.585-3.141
		l-1.36-2.383l1.747-3.397l2.124-2.4l1.464,0.268l0.766,1.422l1.591-0.716l3.248-4.949l1.729-0.046l1.572-1.364l-0.687-1.316
		l3.598-3.604l-0.081-1.553l2.027-0.372l1.354,1.016l2.132-0.991l3.007,1.507l3.357-1.109l5.77,2.001l-0.271-1.092l1.258-1.125
		l1.749,0.576l0.063-1.341l4.013-2.277l6.641-0.347l5.722-3.469l1.347,5.611l-3.214,8.464l-0.581,6.206l0.912,5.883l2.148,4.287
		l3.316,3.807l4.274,2.656l6.711,1.065l5.04-1.086l1.125,9.565l-1.016,7.378l0.691,6.42l3.174,6.104l4.989,4.742l4.704,1.66
		l6.362-0.671l2.788-2.022l2.525,2.761l3.777,0.188l4.078,2.134l2.004,10.602l-0.941,7.308l6.008,12.792l-1.632,4.196l-12.891,6.892
		l-3.813,2.858l-1.666,2.692l-1.233,0.177l-4.042,7.87l-1.607,0.189l-0.096,2.191l-3.36,6.881l-4.097,12.305l-0.699,9.95
		l1.524,5.518l2.559,4.146l2.318,0.002l7.238,3.78l4.311,6.727l-1.022,4.241l-7.072,11.489l-4.251,9.727l-2.575,16.755l-1.306,0.229
		l-0.476,1.294l-2.592-5.849l-4.607-1.961l-0.905,2.847l-2.767,1.368l-2.604-1.781l-3.255,0.619l1.244-4.046l-3.128-0.742
		l-0.84-2.928l-1.553,1.953l-1.966-0.563l-0.643-2.608l2.177-1.215l-0.12-1.095l-2.791,0.291l-1.939-1.172l-0.718,2.187
		l-1.831-0.626l3.331-6.113l-2.462-4.889l-2.641-1.479l2.549-1.442l-1.294-2.126l-2.205,1.521l-2.431-1.027l1.286-3.573
		l-3.339-2.592l-1.908,1.91l-1.003-0.211l-1.51-2.636l1.788-3.051l-0.468-1.226l-3.775,0.196l-1.63-2.472l-2.04,0.82l-4.058-0.275
		l0.105-5.359l-5.407-0.672l-3.036,2.515l-1.149-0.191l-1.032-6.224l-2.141-3.048l-1.561,0.708l-1.466,3.444l-0.499,4.49
		l-2.57,0.675l-0.342,3.822l1.397,2.185l-2.16,4.382l-3.85,3.497l-1.855-2.223l-3.351,0.194l-3.185,1.913l-1.739,4.073l-1.758-0.889
		l-1.562,0.632l-0.329,1.651l0.975,1.189l-1.141,3.871l-0.926,1.244l-1.505-0.149l-1.366,2.777l0.265,1.466l1.61,0.509l-0.13,1.668
		l-3.043-0.117l-2.247,4.997l-2.001,1.418l0.394,2.94l-1.851,2.442l-2.837,0.778l-1.889,3.53l-5.676-0.351l-2.768,2.595
		l-2.338,0.015l-4.394,2.054l-0.346,1.054l-1.896,0.188l-0.237,2.03l-7.315,1.293l-2.477,0.994l-0.896,1.625l-4.718-2.386
		l-0.005-3.454l3.084-5.666l1.092-0.453l0.002-2.275l-1.723-2.29l1.092-1.694l3.994-1.639l1.403,0.381l1.104-3.249l-0.262-2.897
		l2.223-1.146l0.83-2.28l2.472-1.889l5.004-1.939l2.275-7.121l-4.757-0.835l-2.279,1.978l-4.35-2.625l-5.342-0.879l-1.222-3.715
		l2.786-3.43l0.902-5.213l3.089-2.688l1.637-4.588l-1.764-2.4l2.136-3.812l-3.688-1.027l-1.095-2.126L445.893,291.464
		 M452.702,274.148l0.611,0.677l-1.25,0.566l-0.51-0.917l0.327,0.977l-1.313,0.609l2.058,3.003l-0.341-1.097l0.947,0.081
		l-1.594-2.251l2.684,0.711l-1.291-0.894l-0.18-2.027l0.929,0.081l-0.716-1.403L452.702,274.148 M448.388,273.605l0.787-0.264
		l-0.902-0.804L448.388,273.605 M445.302,275.226l-1.212,0.324l0.969,0.446L445.302,275.226 M445.321,279.118l0.12,1.198
		l1.009-0.365L445.321,279.118 M444.116,282.042l-0.201-1.013l-0.626,1.5l0.604-0.425l0.061,1.113L444.116,282.042 M441.431,282.548
		l-0.929-0.527l-0.986,1.094l1.37-0.606l0.019,2.493l1.533-1.034l-1.149-0.224l0.041-0.912l0.788,0.406L441.431,282.548
		 M456.037,275.271l0.889-0.466l-2.079-2.15l1.452,0.893l-0.3-0.993l0.766,0.142l-0.948-0.607l1.071-0.285l-1.313-0.487l0.687-0.547
		l1.171,0.955l-1.313-1.097l-1.999,2.311L456.037,275.271 M453.801,265.842l1.433,1.38l-0.545-1.48L453.801,265.842
		 M451.864,268.053l0.119,0.789l-0.906-0.993l-0.183,0.911l2.177,1.604L451.864,268.053 M477.942,232.435l-0.153,1.009l1.11,0.048
		l-2.114,0.894l-1.775-0.299l0.211-1.307l-2.501-0.089l-0.11,1.538l3.252,2.369l-1.603,1.021l-2.453-0.086l0.307,1.236l2.729,0.172
		l1.905-3.296l2.143,2.937l1.475,0.308l0.888-2.009l-3.339,0.289l1.147-0.884l-0.65-1.378l1.512-1.397L477.942,232.435
		 M481.523,232.794l-2.82,2.33l1.205,1.507l2.729-0.64l0.229-2.433L481.523,232.794 M482.591,236.39l-1.108,0.646l1.238,0.391
		L482.591,236.39 M481.808,237.49l-2.325,2.765l-1.854,0.52l0.607,1.869l0.624-0.932l1.272,1.187l1.143-1.46l1.479-0.17
		l-0.648-0.638l1.531-0.978l-2.114-0.848l2.32,0.612l0.13-0.769L481.808,237.49 M483.878,237.867l0.302,2.121l2.026-0.308
		l0.343-1.054l-0.909,0.466L483.878,237.867 M477.903,242.801l-0.518,0.918l-0.807-1.078l-1.037,1.032l1.822,0.955L477.903,242.801
		 M478.485,243.326l0.896,1.186l-0.84,0.912l1.623,0.3l-0.346-2.304L478.485,243.326 M477.153,243.027l-0.068-2.449l-0.736,0.835
		L477.153,243.027 M475.856,241.14l2.458-1.464l-0.288-1.324l-3.904,1.075L475.856,241.14"/>
	<path id="path3533" fill="#FEFEE9" stroke="#646464" stroke-width="3.4872" stroke-linecap="square" stroke-linejoin="bevel" d="
		M480.316,239.366l1.466,1.629l-1.265-0.068L480.316,239.366"/>
	<path id="path3535" fill="#FEFEE9" stroke="#646464" stroke-width="3.4872" stroke-linecap="square" stroke-linejoin="bevel" d="
		M320.389,431.754l-4.149,0.033l-0.579-2.849l-1.329,0.185l0.065-2.62l-2.091-1.686l-1.315,0.406l-4.087-2.45l-3.804,0.871
		l0.815-1.933l3.202-2.323l-1.244-5.651l-2.061-3.056l-1.465-0.099l-0.723-2.45l-4.514-2.032l-3.693,0.17l4.255-4.913l-1.93-3.273
		l-5.626-0.727l-5.126,5.582l-5.765,1.306l-6.064-6.064l-4.918-1.745l1.846-6.276l1.365-1.284l0.641-6.69l5.007-6.607l4.279,1.111
		l1.976,1.91l1.746-1.229l1.971,0.4l1.073-1.884l3.669-0.087l1.842,1.001l1.658-5.275l3.144-4.296l10.238-0.412l6.759-4.921
		l7.619-0.929l1.076-1.341l1.267,5.518l4.87,4.884l2.102,0.876l1.309,3.418l3.907,0.766l1.241,4.188l-1.126,3.583l3.148,2.537
		l1.003,3.691l1.513,0.893l12.204-3.067l-0.553-2.277l2.055-3.573l3.406-1.414l2.063,4.281l5.906,1.738l3.726-0.031l8.167,6.084
		l5.016,2.46l1.22-0.379l-0.566,2.126l-1.484-0.01l-0.391,1.186l2.595,8.369l-0.053,2.865l-4.814,4.342l0.12,2.547l-1.147,2.164
		l0.288,2.554l2.445,1.19l-0.578,6.601l3.081,6.043l1.801,1.368l3.657-0.543l-3.648,6.42l-4.311,1.834l-3.514-3.619l-2.016,3.446
		l-2.834,0.67l-2.791-3.19l-3.507,0.102l-1.082,3.799l-3.958,4.128l-8.126-1.143l-3.938-3.341l-1.301,1.363l-10.563,1.347
		l-3.771-3.033l5.842-2.196l0.345,1.042l2.336,0.621l1.673-0.754l0.538-2.318l-3.85-2.395l-0.978-2.043l-7.472-1.526l-1.188,0.684
		l0.502,1.266l-2.088,2.903l-2.021,1.215l-2.654,5.047l0.148,2.256l-2.258,0.233l2.46-8.837l-2.738-3.432l-2.573-0.48l0.137-1.951
		L320.389,431.754"/>
	<path id="path3537" fill="#FEFEE9" stroke="#646464" stroke-width="3.4872" stroke-linecap="square" stroke-linejoin="bevel" d="
		M445.893,291.464l2.699,1.493l1.095,2.126l3.688,1.027l-2.136,3.812l1.764,2.4l-1.637,4.588l-3.089,2.688l-0.902,5.213l-2.786,3.43
		l1.222,3.715l5.342,0.879l4.35,2.625l2.279-1.978l4.757,0.835l-2.274,7.121l-5.004,1.939l-2.473,1.889l-0.83,2.28l-2.223,1.146
		l0.262,2.897l-1.104,3.249l-1.404-0.381l-4.22,1.826l-0.929,1.648l1.785,2.148l-0.002,2.274l-1.092,0.454l-3.084,5.666l0.005,3.454
		l-4.395,1.644l-7.044,0.334l-1.299-1.855l-3.71-0.672l-0.377-2.139l0.854-0.606l-0.917-0.841l-2.025,2.391l-6.869,3.478
		l-2.393,0.132l-1.034,2.064l-1.925,0.379l-2.104,2.266l-1.009-0.734l-2.187,2.736l-3-1.5l-3.974,4.262l-3.459,1.651l-0.727,3.276
		l-3.782,3.086l-3.008,10.57l1.025,1.948l-1.22,0.38l-5.016-2.46l-8.167-6.084l-3.726,0.03l-5.906-1.737l1.363-1.745l3.104-0.681
		l5.302-9.495l0.137-3.94l1.252-2.434l-0.928-3.533l3.664-0.028l7.111-5.906l1.661-0.163l1.576-2.435l2.026-0.064l-3.252-4.505
		l-1.311-4.601l0.484-1.476l-1.514-1.46l5.113-5.5l0.619-3.713l6.145-1.162l4.116-3.189l2.524-3.48l4.839,0.293l1.125-8.006
		l8.11-5.609l1.049-2.479l-0.176-3.723l5.246-8.047l-0.033-7.724l1.138-1.997l4.946-0.357l1.467,1.707l4.25-0.978l5.021,2.936
		L445.893,291.464"/>
	<g id="g3551" transform="translate(2.906004,2.906004)" vector-effect="non-scaling-stroke">
	</g>
</g>
</svg>
